<svg width="24" height="24" fill="none" xmlns="http://www.w3.org/2000/svg"><g clip-path="url(#prefix__clip0_1401_2)"><path d="M12 24c6.627 0 12-5.373 12-12S18.627 0 12 0 0 5.373 0 12s5.373 12 12 12z" fill="#627EEA"/><path d="M12.373 3v6.652l5.623 2.513L12.374 3z" fill="#fff" fill-opacity=".602"/><path d="M12.373 3L6.75 12.165l5.623-2.512V3z" fill="#fff"/><path d="M12.373 16.476v4.52L18 13.212l-5.627 3.264z" fill="#fff" fill-opacity=".602"/><path d="M12.373 20.996v-4.52L6.75 13.211l5.623 7.784z" fill="#fff"/><path d="M12.373 15.43l5.623-3.265-5.622-2.511v5.776z" fill="#fff" fill-opacity=".2"/><path d="M6.75 12.165l5.623 3.265V9.654L6.75 12.165z" fill="#fff" fill-opacity=".602"/></g><defs><clipPath id="prefix__clip0_1401_2"><path fill="#fff" d="M0 0h24v24H0z"/></clipPath></defs></svg>