<svg width="1500" height="1500" fill="none" xmlns="http://www.w3.org/2000/svg"><g clip-path="url(#prefix__prefix__prefix__clip0_449_23)"><path fill="url(#prefix__prefix__prefix__paint0_linear_449_23)" d="M0 0h1500v1500H0z"/><path d="M1263.05 1500H288.281l10.85-100.58 39.94-155.79 40.42-64.09 52.27-53.25 34.51-24.16 3.36-40.06 39.97 37.96 77.83 44.22 83.75 32.02 115.88 8.68 98.09-11.03 109.84-41.31 49.719-33.26 72.89 35.61 35.27 39.97 45.35 85.32 28.55 82.3 36.28 157.45z" fill="url(#prefix__prefix__prefix__paint1_linear_449_23)"/><path d="M511.71 1369.26a922.097 922.097 0 00-19 130.68h-20v-.69a924.662 924.662 0 0119.51-134.59 9.975 9.975 0 014.513-6.07 9.99 9.99 0 0113.63 3.22 10.002 10.002 0 011.317 7.45h.03zM1132 1499.94h-20.2c-2.81-13.91-20.24-98.71-36.65-147.5-.45-1.26-.65-2.59-.58-3.92a9.997 9.997 0 013.37-6.98c1-.88 2.16-1.55 3.42-1.98 1.27-.42 2.6-.59 3.93-.49 1.33.09 2.62.45 3.81 1.06a9.988 9.988 0 015 5.93c18.25 54.23 36.92 147.99 37.71 151.93.13.64.19 1.3.19 1.95z" fill="#000"/><path d="M1273 1499.94h-20.19c-4.9-24.54-57.1-278.33-131.07-347.57-76.33-71.43-231.58-74.82-235.22-74.89H587.29c-3.46.23-47.57 3.5-97.76 25.85-30.31 13.49-56.9 31.2-79 52.66-27.59 26.74-48.38 59.47-61.79 97.29-55.76 157.14-49.46 244.99-49.39 245.84v.82h-20c-.66-9.94-4.61-98 50.54-253.35 14.51-40.9 37.07-76.32 67.06-105.28 23.93-23.11 52.6-42.14 85.18-56.56 55.32-24.47 102.42-27.15 104.4-27.25h300.18c1.68 0 41.83.65 92.55 10.67 68.76 13.59 121.29 37 156.13 69.61 34.84 32.62 68.48 103.27 100.21 210.21 23.4 78.83 37.07 149.37 37.2 150.07.12.62.19 1.25.2 1.88z" fill="#000"/><path d="M472.72 1069.48s-4.78 7.57-7.75 21.84a99.84 99.84 0 002.3 49.61c7.56 24.78 24.77 45.48 47.31 58.27 41.82 23.74 178.5 88.84 373.13 56.46 39-6.49 148.09-31.79 186.1-123.53.71-1.74 1.27-3.53 1.67-5.36 1.62-7.41 4.61-27-.83-54.85" fill="url(#prefix__prefix__prefix__paint2_linear_449_23)"/><path d="M472.72 1069.48s-4.78 7.57-7.75 21.84a99.84 99.84 0 002.3 49.61c7.56 24.78 24.77 45.48 47.31 58.27 41.82 23.74 178.5 88.84 373.13 56.46 39-6.49 148.09-31.79 186.1-123.53.71-1.74 1.27-3.53 1.67-5.36 1.62-7.41 4.61-27-.83-54.85" stroke="#000" stroke-width="20" stroke-miterlimit="10"/><path d="M693 1499.94v.06h-19.816v-.06L665 1254.74l19.796-.74L693 1499.94zm105.007 0a29.459 29.459 0 00-10.534-15.78 29.488 29.488 0 00-17.966-6.11 29.491 29.491 0 00-17.967 6.11 29.457 29.457 0 00-10.54 15.81c0 .01.002.02.007.03h22.85l.08-.06a9.289 9.289 0 015.17-1.81h.42c2.006 0 3.961.63 5.58 1.82l.08.06h22.84a.09.09 0 000-.04.105.105 0 00-.02-.03zm106 0a29.459 29.459 0 00-10.534-15.78 29.488 29.488 0 00-17.966-6.11 29.491 29.491 0 00-17.967 6.11 29.457 29.457 0 00-10.54 15.81c0 .01.002.02.007.03h22.85l.08-.06a9.289 9.289 0 015.17-1.81h.42c2.006 0 3.961.63 5.58 1.82l.08.06h22.84a.09.09 0 000-.04.105.105 0 00-.02-.03z" fill="#000"/><path d="M765.705 1439.8c10.775 0 19.51-8.73 19.51-19.51 0-10.77-8.735-19.5-19.51-19.5-10.775 0-19.51 8.73-19.51 19.5 0 10.78 8.735 19.51 19.51 19.51zm106 0c10.775 0 19.51-8.73 19.51-19.51 0-10.77-8.735-19.5-19.51-19.5-10.775 0-19.51 8.73-19.51 19.5 0 10.78 8.735 19.51 19.51 19.51zm-109.818-87.33c10.775 0 19.51-8.74 19.51-19.51 0-10.78-8.735-19.51-19.51-19.51-10.775 0-19.51 8.73-19.51 19.51 0 10.77 8.735 19.51 19.51 19.51zm106 0c10.775 0 19.51-8.74 19.51-19.51 0-10.78-8.735-19.51-19.51-19.51-10.775 0-19.51 8.73-19.51 19.51 0 10.77 8.735 19.51 19.51 19.51z" stroke="#000" stroke-width="20" stroke-miterlimit="10"/><path d="M775 1185c231.41 0 419-168.12 419-375.5 0-207.383-187.59-375.5-419-375.5-231.407 0-419 168.117-419 375.5 0 207.38 187.593 375.5 419 375.5z" fill="url(#prefix__prefix__prefix__paint3_linear_449_23)"/><path d="M775 1185c231.41 0 419-168.12 419-375.5 0-207.383-187.59-375.5-419-375.5-231.407 0-419 168.117-419 375.5 0 207.38 187.593 375.5 419 375.5z" stroke="#000" stroke-width="20"/><path d="M914.5 1067.2a53.704 53.704 0 0049.612-33.15 53.703 53.703 0 00-11.641-58.522 53.698 53.698 0 00-82.621 8.138 53.699 53.699 0 0044.65 83.534z" fill="#fff" stroke="#000" stroke-width="20" stroke-miterlimit="10" stroke-linecap="round"/><path d="M764.05 841.24c31.337 0 56.74-25.404 56.74-56.74 0-31.337-25.403-56.74-56.74-56.74-31.337 0-56.74 25.403-56.74 56.74 0 31.336 25.403 56.74 56.74 56.74zm284.14 0c31.34 0 56.74-25.404 56.74-56.74 0-31.337-25.4-56.74-56.74-56.74-31.34 0-56.74 25.403-56.74 56.74 0 31.336 25.4 56.74 56.74 56.74z" fill="#fff" stroke="#000" stroke-width="20" stroke-miterlimit="10"/><path d="M764.05 797.5c7.18 0 13-5.82 13-13s-5.82-13-13-13-13 5.82-13 13 5.82 13 13 13zm284.14 0c7.18 0 13-5.82 13-13s-5.82-13-13-13-13 5.82-13 13 5.82 13 13 13z" fill="#000"/><path d="M367.752 776.001s-3.28 28.45-1 45.76c2.44 18.17 1-1 1-1l33.42-7 66.7-6.4 126.25-16-16.45-38.56-209.92 23.2z" fill="url(#prefix__prefix__prefix__paint4_linear_449_23)"/><path d="M606.318 716.472c95.73-8.92 414.352-33.91 577.682 11.29 0 0 44.94 150.57-139.53 176-28.09 3.88-56.602-5.94-75.622-27-10.05-11.11-24.47-21-44-21-21.81 0-38.66 12.64-50.2 25.56a87.103 87.103 0 01-68.66 29c-69-2.89-188.31-28-221.92-162.37a25.404 25.404 0 0122.25-31.48z" fill="url(#prefix__prefix__prefix__paint5_linear_449_23)" stroke="#000" stroke-width="20" stroke-miterlimit="10"/><path d="M584.08 748.012L356 777.042M598.32 795L356 822" stroke="#000" stroke-width="20" stroke-miterlimit="10"/><path d="M1012 393.09l32.13-41.94 21.36-81.32-1-56.51 48.67 69 25.58 62.53 10.69 49-20 57.47-37.55 45.15-32.3-51-47.58-52.38z" fill="url(#prefix__prefix__prefix__paint6_linear_449_23)"/><path d="M330.08 736l-6.71-75 27.84-29.17 299-95.44 225.93-29.11 185-3.26 61.43 12.08L1175 652l-328.3 18.6-177.28 26.1-162.25 42.71L347 800.94 330.08 736z" fill="url(#prefix__prefix__prefix__paint7_linear_449_23)"/><path d="M340 641.68s-11.84-38.57 31.53-132c43.37-93.43 154.25-185 328.17-204.14C873.62 286.4 982 369.76 982 369.76s92.35 75.5 112 138.23c-.08.01-359.3-35.8-754 133.69z" fill="url(#prefix__prefix__prefix__paint8_linear_449_23)"/><path d="M290 370.36l22.67 118.7 57 74 65.76 38.1 55.1-21.48 16-67.78-13-32-52.13-59.21L364.38 367 310 269.16l-20 101.2z" fill="url(#prefix__prefix__prefix__paint9_linear_449_23)"/><path d="M1090.87 508.09a41.584 41.584 0 0123.33 7.127 41.639 41.639 0 0115.33 18.983v0l44.76 105.21c.41 2.605.23 5.267-.51 7.797a17.874 17.874 0 01-3.78 6.84 17.843 17.843 0 01-6.32 4.585 17.968 17.968 0 01-7.68 1.458c-396.13-13-714.6 106.26-796.1 141a17.89 17.89 0 01-7.917 1.423 17.892 17.892 0 01-13.742-7.541 17.9 17.9 0 01-3.051-7.442l-10.37-122.08a17.92 17.92 0 0110.44-19.25c3.22-1.42 6.437-2.827 9.65-4.22 43.06-18.71 76.53-30.88 117.88-45a1614.05 1614.05 0 0124.31-8.19C709 504 998.86 508.2 1090.87 508.09z" stroke="#000" stroke-width="20" stroke-miterlimit="10"/><path d="M440.09 604.81c-30.07-7.52-84-34.57-117.6-92.46-28.59-49.26-44.08-125.24-22-242.4a3.198 3.198 0 013.06-2.76 3.153 3.153 0 012.09.68 3.183 3.183 0 011.17 1.86c6.77 25 26.19 77.19 77.55 122.92a289.242 289.242 0 0059.19 40.55c37.63 19.58 59.16 64.15 50.54 108.23-2.52 12.87-8.23 36.19-16.92 50.07m528.64-202.8s63.38-13.85 56.69-168.71c-.29-6.84 9.64-8.73 12.92-2.71 27.46 51 128.43 161 23.15 279.19" stroke="#000" stroke-width="20" stroke-miterlimit="10"/><path d="M740.34 641.68a31.34 31.34 0 100-62.681 31.34 31.34 0 000 62.681zm-316 82a31.34 31.34 0 100-62.681 31.34 31.34 0 000 62.681zm158-47a31.34 31.34 0 100-62.681 31.34 31.34 0 000 62.681zm316-55a31.34 31.34 0 100-62.681 31.34 31.34 0 000 62.681zm158-7c6.2 0 12.26-1.838 17.41-5.282a31.276 31.276 0 0011.54-14.065c2.38-5.726 3-12.028 1.79-18.107a31.375 31.375 0 00-8.58-16.047 31.334 31.334 0 00-34.15-6.793 31.372 31.372 0 00-14.07 11.542 31.37 31.37 0 00-5.28 17.412c0 8.312 3.3 16.283 9.18 22.161a31.348 31.348 0 0022.16 9.179z" fill="#fff" stroke="#000" stroke-width="20" stroke-miterlimit="10"/><path d="M430.29 425.91c47.15-49 117.91-92.61 224.11-113.29 338-65.8 443.08 195.68 443.08 195.68M344.91 642s-9.1-35.91 8.74-88.89" stroke="#000" stroke-width="20" stroke-miterlimit="10"/></g><defs><linearGradient id="prefix__prefix__prefix__paint0_linear_449_23" x1="0" y1="0" x2="1500" y2="1500" gradientUnits="userSpaceOnUse"><stop stop-color="#A0C8E0"/><stop offset="1" stop-color="#6A8494"/></linearGradient><linearGradient id="prefix__prefix__prefix__paint1_linear_449_23" x1="599.5" y1="1062" x2="905.481" y2="1578.01" gradientUnits="userSpaceOnUse"><stop stop-color="#fff"/><stop offset="1" stop-color="#EAEAEA"/></linearGradient><linearGradient id="prefix__prefix__prefix__paint2_linear_449_23" x1="624.5" y1="1089.96" x2="796.492" y2="1283.96" gradientUnits="userSpaceOnUse"><stop stop-color="#FAF8F6"/><stop offset="1" stop-color="#E9EAEB"/></linearGradient><linearGradient id="prefix__prefix__prefix__paint3_linear_449_23" x1="417" y1="495.5" x2="1096" y2="1147" gradientUnits="userSpaceOnUse"><stop stop-color="#BFC7FF"/><stop offset="1" stop-color="#8C95CF"/></linearGradient><linearGradient id="prefix__prefix__prefix__paint4_linear_449_23" x1="382" y1="779" x2="589" y2="811.5" gradientUnits="userSpaceOnUse"><stop stop-color="#fff"/><stop offset="1" stop-color="#E3E3E3"/></linearGradient><linearGradient id="prefix__prefix__prefix__paint5_linear_449_23" x1="664" y1="732.5" x2="1155.5" y2="910" gradientUnits="userSpaceOnUse"><stop stop-color="#57EAFF"/><stop offset="1" stop-color="#4F4AEF"/></linearGradient><linearGradient id="prefix__prefix__prefix__paint6_linear_449_23" x1="1080.72" y1="213.32" x2="1080.72" y2="496.47" gradientUnits="userSpaceOnUse"><stop stop-color="#fff"/><stop offset="1" stop-color="#DDD"/></linearGradient><linearGradient id="prefix__prefix__prefix__paint7_linear_449_23" x1="749.185" y1="504.02" x2="814.501" y2="787" gradientUnits="userSpaceOnUse"><stop stop-color="#fff"/><stop offset="1" stop-color="#ADADB0"/></linearGradient><linearGradient id="prefix__prefix__prefix__paint8_linear_449_23" x1="716.262" y1="302.685" x2="716.262" y2="641.68" gradientUnits="userSpaceOnUse"><stop stop-color="#F4DDDC"/><stop offset="1" stop-color="#AB9998"/></linearGradient><linearGradient id="prefix__prefix__prefix__paint9_linear_449_23" x1="290" y1="291" x2="467" y2="601" gradientUnits="userSpaceOnUse"><stop stop-color="#fff"/><stop offset="1" stop-color="#DDD"/></linearGradient><clipPath id="prefix__prefix__prefix__clip0_449_23"><path fill="#fff" d="M0 0h1500v1500H0z"/></clipPath></defs></svg>