<svg width="1500" height="1500" fill="none" xmlns="http://www.w3.org/2000/svg"><g clip-path="url(#prefix__prefix__clip0_449_24)"><path fill="url(#prefix__prefix__paint0_linear_449_24)" d="M0 0h1500v1500H0z"/><path d="M360 1179.44l-69.5 320.48H1276l-120.5-336.98-26-23.5-109.5-26.5H558l-84 18-86 21-28 27.5z" fill="url(#prefix__prefix__paint1_linear_449_24)"/><path d="M740.41 1499.98l-15.32-158.63-5.88-102.43 7.78-56.45 161.2-9.84 26.66 114.71 7 165.68-2.26 46.96H740.41z" fill="#fff"/><path d="M1286.24 1499.98h-21.3l-115.52-315.04a69.02 69.02 0 00-52.3-44.3l-322-58.87-356 70.31a68.713 68.713 0 00-34.722 18.27 68.715 68.715 0 00-19.068 34.29l-64.54 295.38h-20.52l65.47-299.68a88.803 88.803 0 0124.623-44.29 88.783 88.783 0 0144.837-23.6l359.77-71 325.74 59.49a88.994 88.994 0 0167.5 57.13l118.03 321.91z" fill="#000"/><path d="M511.71 1369.24a922.097 922.097 0 00-19 130.68h-20v-.69a924.662 924.662 0 0119.51-134.59 9.975 9.975 0 014.513-6.07 9.99 9.99 0 017.473-1.18c2.549.61 4.759 2.18 6.157 4.4a10.002 10.002 0 011.317 7.45h.03zM1132 1499.92h-20.2c-2.81-13.91-20.24-98.7-36.65-147.5a10.046 10.046 0 01.4-7.75 9.97 9.97 0 012.39-3.15c1-.88 2.16-1.55 3.42-1.98a10.087 10.087 0 017.74.57c1.18.61 2.24 1.44 3.1 2.46.86 1.02 1.5 2.2 1.9 3.47 18.25 54.24 36.92 147.99 37.71 151.93.13.64.19 1.3.19 1.95z" fill="#000"/><path d="M769.13 1499.92l18.12-231.45-27.78-13.87 53.15-64.43 53.96 68.22-23.79 12.81 21.3 105.71 23.04 123.07-118-.06z" fill="url(#prefix__prefix__paint2_linear_449_24)"/><path d="M724.06 1281.21h-6.76v-20h15.35a5.038 5.038 0 002.49-.85 5.058 5.058 0 001.71-2.01l.42-.79 56.4-71.55a17.613 17.613 0 015.964-4.86 17.474 17.474 0 017.466-1.86c2.595-.07 5.172.44 7.547 1.49a17.667 17.667 0 016.193 4.57l58.48 67.19.47.79a5.394 5.394 0 002.474 2.21c1.036.45 2.189.57 3.296.33 4.74-1 12.37-2.84 21.82-5.63l5.68 19.17c-8 2.36-16 4.43-23.26 6a25.326 25.326 0 01-15.068-1.33 25.336 25.336 0 01-11.632-9.67l-55.48-63.75-53.6 67.99a24.79 24.79 0 01-8.987 9.15 24.758 24.758 0 01-12.353 3.44l-8.62-.03z" fill="#000"/><path d="M808.88 1283.14c-16.618.01-33.06-3.39-48.31-10l-9.93-4.31 8-18.34 9.93 4.3a101.641 101.641 0 0040.35 8.35c13.879 0 27.611-2.84 40.35-8.35l9.93-4.3 8 18.34-9.93 4.31a121.31 121.31 0 01-48.39 10z" fill="#000"/><path d="M784.18 1500l-20-.16 8.27-226.74 20 .16-8.27 226.74zm98.64-.08L835 1275.79l19.3-5.23 49.24 229.36h-20.72zm-223.67-160.99a17.306 17.306 0 01-3.179 8.79 17.3 17.3 0 01-7.281 5.87l-43.43 18.72a10.156 10.156 0 00-5.231 5.1 10.174 10.174 0 00-.469 7.29l35.82 115.28h-20.94l-34-109.35a30.138 30.138 0 0116.9-36.7l38.87-16.76-60.54-37.75a32.868 32.868 0 01-9.85-9.52 32.804 32.804 0 011.53-38.69l74.09-93.22 7.82 6.22 7.83 6.23-74.09 93.24a12.751 12.751 0 00-2.369 4.79 12.76 12.76 0 00-.208 5.33 12.779 12.779 0 005.827 8.67l64.75 40.38a17.347 17.347 0 016.326 6.9 17.347 17.347 0 011.824 9.18zm87.6 161.05h-20.3c-3.74-22.87-8-52-11.58-84.27-11.14-100.91-10.32-182.42 2.47-242.29 0-.26.1-.51.16-.77l9.77 2.11 9.78 2.11c-5.54 25.68-8.42 54.46-9.43 84.34-.233 6.62-.37 13.29-.41 20-.59 81.53 11.11 167.65 19.54 218.77zm187.51-93.38c1.28 36.42 1.09 69.17.56 93.38h-20a.067.067 0 01-.008-.03c0-.01.003-.02.008-.03.22-10.44.38-22.51.38-35.84 0-52.53-2.47-124.45-13-191.61-1-6.65-2.17-13.26-3.38-19.79-5.25-28.36-12.1-55.39-21-79.19l9.36-3.5 9.35-3.49.27.74c21.28 57.35 33.89 137.89 37.46 239.36zm129.36-44.26L1042 1499.98h-20.25l22.15-140.75c.39-2.49-.15-5.03-1.52-7.14a10.15 10.15 0 00-5.91-4.29l-45.68-12.24a17.407 17.407 0 01-8.053-4.76 17.376 17.376 0 01-3.934-17.58 17.403 17.403 0 015.257-7.74l58.23-49.32c1.37-1.16 2.49-2.6 3.26-4.23.78-1.62 1.21-3.39 1.25-5.19.05-1.8-.29-3.59-.98-5.25-.69-1.67-1.73-3.16-3.04-4.4L956 1155.56l6.85-7.29 6.85-7.28 86.78 81.53a32.844 32.844 0 0110.32 24.74 32.772 32.772 0 01-11.58 24.16l-54.44 46.11 40.88 11a30.175 30.175 0 0117.47 12.69 30.161 30.161 0 014.49 21.12z" fill="#000"/><path d="M775 1185c231.41 0 419-168.12 419-375.5 0-207.383-187.59-375.5-419-375.5-231.407 0-419 168.117-419 375.5 0 207.38 187.593 375.5 419 375.5z" fill="url(#prefix__prefix__paint3_linear_449_24)"/><path d="M775 1185c231.41 0 419-168.12 419-375.5 0-207.383-187.59-375.5-419-375.5-231.407 0-419 168.117-419 375.5 0 207.38 187.593 375.5 419 375.5z" stroke="#000" stroke-width="20"/><path d="M821.63 792.38a76.418 76.418 0 00-93.773-21.665 76.405 76.405 0 00-26.727 21.665m135.69 199.06c38.57 39.21 113.35 39.21 151.93 0m120.5-199.06a76.451 76.451 0 00-26.73-21.665 76.39 76.39 0 00-33.52-7.745 76.425 76.425 0 00-60.25 29.41" stroke="#000" stroke-width="20" stroke-miterlimit="10" stroke-linecap="round"/><path d="M732.51 716.382a.135.135 0 00.059.011.129.129 0 00.057-.019.113.113 0 00.04-.044.108.108 0 00.014-.058c-.06-3.15 0-44.08 43-42 0 0 36.07 2.11 40.57 41.22a.12.12 0 00.17.1c2.54-1.13 38.11-16.18 57.7 13.29 19.59 29.47-10.28 56.51-12.25 58.22a.13.13 0 000 .18c2 1.86 33.67 28.35 16.711 57.94-16.96 29.59-54 16.2-56.56 15a.111.111 0 00-.161.09c-.42 2.79-6.86 41.59-40.73 43-33.87 1.41-44.86-36.09-45.57-38.67a.111.111 0 00-.022-.045.117.117 0 00-.04-.03.141.141 0 00-.049-.009.112.112 0 00-.048.014c-2.36 1.15-36.651 17.15-57.701-14.5-21.05-31.65 7.131-55.44 9.141-57.07a.116.116 0 00.034-.039.113.113 0 00-.034-.141c-2.05-1.74-31.9-28-11-61.24 19.98-31.71 53.949-16.48 56.669-15.2z" fill="url(#prefix__prefix__paint4_linear_449_24)" stroke="#000" stroke-width="20" stroke-miterlimit="10"/><path d="M1031.34 715.128c.02.011.04.018.06.018.02.001.04-.005.06-.015.01-.01.03-.026.04-.044a.117.117 0 00.01-.059c0-3.16 1.3-44.07 44.21-40.72 0 0 36 3.16 39.35 42.39 0 .018.01.036.02.051s.02.028.04.038c.01.01.03.016.05.018.01.002.03-.001.05-.007 2.58-1 38.57-15.06 57.3 15 18.73 30.06-11.93 56.18-14 57.84a.29.29 0 00-.03.041c-.01.015-.01.032-.01.049s0 .034.01.05c.01.015.02.029.03.04 1.92 1.91 32.83 29.31 15 58.41-17.83 29.1-54.44 14.61-57 13.32-.02-.01-.03-.016-.05-.018a.14.14 0 00-.06.01c-.01.008-.03.021-.04.036a.098.098 0 00-.02.052c-.5 2.78-8.07 41.37-42 41.82-33.93.45-43.78-37.39-44.42-40 0-.016-.01-.031-.02-.044-.01-.013-.03-.024-.04-.032-.02-.007-.03-.011-.05-.012a.125.125 0 00-.05.008c-2.39 1.09-37.13 16.08-57.25-16.17-20.12-32.25 8.75-55.21 10.8-56.78a.107.107 0 00.046-.09.116.116 0 00-.012-.051.116.116 0 00-.034-.039c-2-1.8-31.07-28.87-9.18-61.53 21-31.16 54.51-14.94 57.19-13.58z" fill="url(#prefix__prefix__paint5_linear_449_24)" stroke="#000" stroke-width="20" stroke-miterlimit="10"/><path d="M871.488 797.371s52.42-23.07 104.84 0M370.09 692.07L681 789.5" stroke="#000" stroke-width="20" stroke-miterlimit="10"/><circle cx="776" cy="789" r="54" fill="url(#prefix__prefix__paint6_linear_449_24)" stroke="#000" stroke-width="20"/><circle cx="1072" cy="789" r="54" fill="url(#prefix__prefix__paint7_linear_449_24)" stroke="#000" stroke-width="20"/><path d="M1068.31 569.1c-2.66 6.42-21.62 32-100.88 52.21-53.75 13.74-124.43 21.84-185.22 21.84-58.9 0-124.29-5.82-177.32-21.38-52.16-15.3-99.36-44.92-107.89-64.2-2.13-4.81 4.66-14.87 16.67-28.63a21.927 21.927 0 013.26-3.07c38.75-29.49 63.07-39.51 98.75-53.27a446.792 446.792 0 01319.85 0c43.15 16.56 80.6 37.67 116.07 67.65.81.68 1.57 1.412 2.29 2.19 9.81 10.78 15.32 24.43 14.42 26.66z" fill="url(#prefix__prefix__paint8_linear_449_24)"/><path d="M745.25 476.39h16.12a3.622 3.622 0 013.351 2.225c.183.439.278.909.279 1.385v22.64a16.22 16.22 0 0016.22 16.21h3.89a16.231 16.231 0 0015.001-10.002 16.21 16.21 0 001.239-6.208v-22.6a3.62 3.62 0 013.62-3.62h16.14a16.191 16.191 0 0011.465-4.745 16.198 16.198 0 004.745-11.465V184.1a16.209 16.209 0 00-4.745-11.465 16.187 16.187 0 00-11.465-4.745h-75.86a16.22 16.22 0 00-16.16 16.21v276.08a16.22 16.22 0 0016.16 16.21z" fill="url(#prefix__prefix__paint9_linear_449_24)" stroke="#000" stroke-width="20" stroke-miterlimit="10"/><path d="M980.09 613.2V184.1a16.22 16.22 0 00-16.21-16.21h-75.79a16.246 16.246 0 00-15 10 16.331 16.331 0 00-1.23 6.21v446.1" fill="url(#prefix__prefix__paint10_linear_449_24)"/><path d="M980.09 613.2V184.1a16.22 16.22 0 00-16.21-16.21h-75.79a16.246 16.246 0 00-15 10 16.331 16.331 0 00-1.23 6.21v446.1" stroke="#000" stroke-width="20" stroke-miterlimit="10"/><path d="M586.22 610.23V453.47a16.22 16.22 0 0116.21-16.21h13.16a3.621 3.621 0 003.62-3.62v-50.28a16.222 16.222 0 0116.21-16.22h8.92a16.267 16.267 0 0111.46 4.75 16.151 16.151 0 014.75 11.47v50.29a3.618 3.618 0 003.62 3.62h14.08a16.23 16.23 0 0116.21 16.21v179.17" fill="url(#prefix__prefix__paint11_linear_449_24)"/><path d="M586.22 610.23V453.47a16.22 16.22 0 0116.21-16.21h13.16a3.621 3.621 0 003.62-3.62v-50.28a16.222 16.222 0 0116.21-16.22h8.92a16.267 16.267 0 0111.46 4.75 16.151 16.151 0 014.75 11.47v50.29a3.618 3.618 0 003.62 3.62h14.08a16.23 16.23 0 0116.21 16.21v179.17" stroke="#000" stroke-width="20" stroke-miterlimit="10"/><path d="M508.09 520.15c-58 66 123.13 123 274.12 123s337.43-47.21 277.43-109.21" stroke="#000" stroke-width="20" stroke-miterlimit="10"/></g><defs><linearGradient id="prefix__prefix__paint0_linear_449_24" x1="0" y1="0" x2="1500" y2="1500" gradientUnits="userSpaceOnUse"><stop stop-color="#DCC0FF"/><stop offset="1" stop-color="#964CF2"/></linearGradient><linearGradient id="prefix__prefix__paint1_linear_449_24" x1="438" y1="1112.94" x2="1251.98" y2="1499.95" gradientUnits="userSpaceOnUse"><stop stop-color="#575656"/><stop offset="1" stop-color="#2F2E2E"/></linearGradient><linearGradient id="prefix__prefix__paint2_linear_449_24" x1="823.3" y1="1190.17" x2="823.3" y2="1499.98" gradientUnits="userSpaceOnUse"><stop stop-color="#4E4C4C"/><stop offset="1" stop-color="#2F2E2E"/></linearGradient><linearGradient id="prefix__prefix__paint3_linear_449_24" x1="417" y1="495.5" x2="1096" y2="1147" gradientUnits="userSpaceOnUse"><stop stop-color="#BFC7FF"/><stop offset="1" stop-color="#8C95CF"/></linearGradient><linearGradient id="prefix__prefix__paint4_linear_449_24" x1="714.5" y1="684" x2="825.5" y2="868" gradientUnits="userSpaceOnUse"><stop stop-color="#B4EBA5"/><stop offset="1" stop-color="#6DC9CC"/></linearGradient><linearGradient id="prefix__prefix__paint5_linear_449_24" x1="1014.5" y1="684" x2="1123" y2="869" gradientUnits="userSpaceOnUse"><stop stop-color="#BFF09E"/><stop offset="1" stop-color="#69C7CD"/></linearGradient><linearGradient id="prefix__prefix__paint6_linear_449_24" x1="776" y1="725" x2="776" y2="853" gradientUnits="userSpaceOnUse"><stop stop-color="#FFEED9"/><stop offset="1" stop-color="#FFD336"/></linearGradient><linearGradient id="prefix__prefix__paint7_linear_449_24" x1="1072" y1="725" x2="1072" y2="853" gradientUnits="userSpaceOnUse"><stop stop-color="#FFEED9"/><stop offset="1" stop-color="#FFD336"/></linearGradient><linearGradient id="prefix__prefix__paint8_linear_449_24" x1="782.509" y1="442.997" x2="782.999" y2="813.001" gradientUnits="userSpaceOnUse"><stop stop-color="#9CA7B6"/><stop offset="1" stop-color="#081B35"/></linearGradient><linearGradient id="prefix__prefix__paint9_linear_449_24" x1="783.205" y1="167.89" x2="783.205" y2="518.85" gradientUnits="userSpaceOnUse"><stop stop-color="#4CFCB6"/><stop offset="1" stop-color="#1AC984"/></linearGradient><linearGradient id="prefix__prefix__paint10_linear_449_24" x1="925.975" y1="167.89" x2="925.975" y2="630.2" gradientUnits="userSpaceOnUse"><stop stop-color="#FF8B9D"/><stop offset="1" stop-color="#D51936"/></linearGradient><linearGradient id="prefix__prefix__paint11_linear_449_24" x1="640.34" y1="367.14" x2="640.34" y2="632.65" gradientUnits="userSpaceOnUse"><stop stop-color="#4FFFB9"/><stop offset="1" stop-color="#15C47F"/></linearGradient><clipPath id="prefix__prefix__clip0_449_24"><path fill="#fff" d="M0 0h1500v1500H0z"/></clipPath></defs></svg>