<svg width="1500" height="1500" fill="none" xmlns="http://www.w3.org/2000/svg">
    <g clip-path="url(#prefix__clip0_449_22)">
        <path fill="url(#prefix__paint0_linear_449_22)" d="M0 0h1500v1500H0z" />
        <path d="M289.32 1500l15.53-112.58 30.68-117.3-17.14-45.59s-15-117.74 41.25-161c56.25-43.26 65.45-47.41 65.45-47.41s135.65 171.93 339 168.87c203.35-3.06 328.18-130.19 328.18-130.19l42-46.11 14.44 49.93L1133 1102l-10.73 32.19 38.38 53.64 56.12 125.69 16.09 69.9 16.92 63.54 13.61 53.09-974.07-.05z" fill="url(#prefix__paint1_linear_449_22)" />
        <path d="M940.6 1346.88l3.847 5.41-15.113 33.35h25.683l-4.47-6.31-.675 2.05h-13.284l11.118-24.37 27.87 39.34h-64.168l22.439-49.5c1.169-2.58 4.908-2.56 6.757.03h-.004zm-2.666 95.5l-1.449 3.26h-40.434c-3.021 0-5.345-3.28-4.165-5.88l16.587-36.61h46.866l-17.405 39.23zm6.651 3.14l17.641-39.77 1.152-2.6h17.102l12.768 17.86-12.867.01-5.185-7.16h-4.369l-9.048 20.39h27.965l-6.254-8.83 12.944.03 10.106 14.21c1.85 2.61.42 5.85-2.59 5.85l-59.365.01z" fill="#fff" />
        <path d="M1005.53 1451.78l-109.331.1c-7.548 0-13.362-8.2-10.42-14.71l42.527-94.07c2.916-6.45 12.266-6.4 16.878.09l66.806 93.98c4.62 6.5 1.03 14.6-6.46 14.61" fill="#fff" />
        <path d="M908.716 1402.61l-16.833 37.14c-1.179 2.61 1.145 5.89 4.165 5.89h41.246l19.089-43.03h-47.667zm7.967 11.26h21.692l-2.054 4.62h-21.736l2.098-4.62zm12.59 20.51h-21.886l2.097-4.63h21.842l-2.053 4.63zM975.957 1396.9h-64.801l22.685-50.05c1.169-2.58 4.908-2.56 6.757.03l3.846 5.42-15.112 33.34h25.683l-4.47-6.31-.674 2.05h-13.285l11.118-24.37 28.253 39.89zM1003.95 1445.51h-60.182l19.04-42.9h17.285l13.155 18.4-12.866.01-5.186-7.15h-4.368l-9.049 20.38h27.966l-6.254-8.83 12.944.03 10.105 14.21c1.85 2.61.42 5.85-2.59 5.85" fill="#BC9EEB" />
        <path d="M512.15 1369.42a922.37 922.37 0 00-19 130.58h-20.89v-.72a926.03 926.03 0 0119.52-134.67 10.46 10.46 0 014.679-6.49 10.516 10.516 0 017.896-1.28c2.697.64 5.03 2.33 6.487 4.68a10.46 10.46 0 011.278 7.9h.03zM1132.47 1500h-21.11c-2.86-14.16-20.25-98.69-36.62-147.37-.45-1.3-.63-2.68-.55-4.06.09-1.37.45-2.72 1.06-3.95.61-1.24 1.46-2.34 2.49-3.25 1.04-.91 2.25-1.6 3.55-2.04 1.31-.44 2.69-.61 4.06-.52 1.38.1 2.72.47 3.95 1.08 1.23.62 2.33 1.47 3.23 2.52.9 1.04 1.59 2.25 2.02 3.56 18.26 54.27 36.94 148 37.72 152 .14.67.2 1.35.2 2.03zM429 1140.38c-36.78 29.35-63.66 67.4-79.87 113.1-55.72 157-49.44 244.8-49.37 245.66v.86h-20.9c-.68-10.16-4.54-98.23 50.55-253.51 17.54-49.43 46.65-90.63 86.53-122.45a10.652 10.652 0 013.648-2.06 10.458 10.458 0 018.171.75c1.241.68 2.334 1.59 3.212 2.69a10.526 10.526 0 011.897 3.74 10.435 10.435 0 01-1.104 8.13 10.46 10.46 0 01-2.824 3.09h.06zM1273.43 1500h-21.09c-2.38-11.9-15.44-75.74-36.39-146.32-30.24-101.86-62.93-171.34-94.54-200.93l-2.5-2.36a45.331 45.331 0 00-5.57-4.69 10.454 10.454 0 0112.68-16.62c2.59 1.88 5.04 3.95 7.33 6.19.61.59 1.35 1.3 2.34 2.22 34.83 32.6 68.59 103.39 100.34 210.41 23.4 78.86 37.08 149.42 37.21 150.12.13.65.19 1.32.19 1.98z" fill="#000" />
        <path d="M425.09 1016.13S268 1075 329.32 1270.12M425.09 1122.57s52.18 120.38 243.46 131M965.67 1237.2s119-29.84 172-136.28c32.82-65.94-6.64-89.63-6.64-89.63" stroke="#000" stroke-width="20" stroke-miterlimit="10" stroke-linecap="round" />
        <path d="M775 1185c231.41 0 419-168.12 419-375.5 0-207.383-187.59-375.5-419-375.5-231.407 0-419 168.117-419 375.5 0 207.38 187.593 375.5 419 375.5z" fill="url(#prefix__paint2_linear_449_22)" />
        <path d="M775 1185c231.41 0 419-168.12 419-375.5 0-207.383-187.59-375.5-419-375.5-231.407 0-419 168.117-419 375.5 0 207.38 187.593 375.5 419 375.5z" stroke="#000" stroke-width="20" />
        <path d="M1046 825a40.998 40.998 0 0037.88-25.31 41.043 41.043 0 002.33-23.689 40.939 40.939 0 00-11.22-20.992 40.99 40.99 0 00-44.68-8.888 40.977 40.977 0 00-18.4 15.101 40.996 40.996 0 005.1 51.769A41.006 41.006 0 001046 825z" fill="#000" />
        <path d="M729.63 808.82l88.08-16a7.737 7.737 0 006.23-6.4 7.757 7.757 0 00-.73-4.64 7.674 7.674 0 00-3.27-3.35l-82.39-43.72M836.82 991.44c38.57 39.21 113.35 39.21 151.93 0" stroke="#000" stroke-width="20" stroke-miterlimit="10" stroke-linecap="round" />
        <path d="M1086 1014c0 39.21-75.66 71-169 71-93.336 0-169-31.76-169-71 0-39.241 75.664-71 169-71 93.34 0 169 31.788 169 71z" fill="url(#prefix__paint3_linear_449_22)" />
        <path d="M797.83 990.76s-2.26-46.71 35.63-47.76l12.4-.07 3.7 53.67-51.73-5.84z" fill="url(#prefix__paint4_linear_449_22)" />
        <path d="M796.078 999.77h59.58l3.78 54.84-37.21-2.24-13.26-25.18-12.89-27.42z" fill="url(#prefix__paint5_linear_449_22)" />
        <path d="M845.859 942.93l34.49 8.62 26.47-3.52 5.08 50.29-56.24 1.45-9.8-56.84z" fill="url(#prefix__paint6_linear_449_22)" />
        <path d="M910.488 947.172h68.54l.03 51.15h-67.16l-1.41-51.15z" fill="url(#prefix__paint7_linear_449_22)" />
        <path d="M983.589 944.871l17.001 2.3 24.03 9.66 9.05 28.5-.91 12.99h-53.701l4.53-53.45z" fill="url(#prefix__paint8_linear_449_22)" />
        <path d="M849.559 996.602l62.34 1.72 7.38 54.048-59.84 2.24-9.88-58.008z" fill="url(#prefix__paint9_linear_449_22)" />
        <path d="M918.461 999.77h64.2l-8.03 54.84-55.35-2.24-.82-52.6z" fill="url(#prefix__paint10_linear_449_22)" />
        <path d="M975.289 994.512l63.171 5.26-6.4 30.408-34.761 26.48-17.86-2.05-4.15-60.098z" fill="url(#prefix__paint11_linear_449_22)" />
        <path d="M797.489 985.841c-1.87-27.17 21.28-47.59 48.37-42.91 20 3.45 43.93 5.16 69 5.16s48.63-1.84 68.06-5.36c26.511-4.82 52.631 15.6 54.521 42.87l1.08 15.709c2 29.44-20.17 53.3-49.601 53.3h-133.4c-29.43 0-54.94-23.86-57-53.3l-1.03-15.469zM798.352 998.309h234.408M912.512 954.172l6.78 98.198M845.031 947.172l14.26 105.198M979.031 947.172l.26 105.198" stroke="#000" stroke-width="20" stroke-miterlimit="10" />
        <path d="M1189.38 568a10.407 10.407 0 00-1.98 4.502c-.29 1.637-.18 3.32.31 4.908 23.49 64.7-16.84 79.42-16.84 79.42-17.85 7.34-31.27 2.64-38.16-1.24a10.512 10.512 0 00-10.62.13c-27.22 16.44-55.56 1.29-67.16-6.55a10.383 10.383 0 00-5.55-1.766c-1.98-.048-3.93.471-5.63 1.496-32.85 19.84-57.26 6.36-67.67-1.92a10.535 10.535 0 00-5.908-2.269c-2.156-.132-4.3.402-6.142 1.529-32.52 19.74-59.81 4.64-71.37-4.09a10.489 10.489 0 00-12.37-.12c-29.69 20.81-53.63 8.37-64.18.37a10.491 10.491 0 00-12.34-.11c-31.71 22.15-63.62 7.45-76.9-.71a10.492 10.492 0 00-12.24 1c-26.85 22.5-57.29 17.5-70 14a10.467 10.467 0 00-10.48 3c-26.07 28-51.91 28.25-64.16 26.29a10.376 10.376 0 00-10.64 4.9c-13.53 23.17-40.52 28.09-53.48 29.09a10.494 10.494 0 00-9 6.76c-8 20.93-37.11 30.28-49 33.28a10.461 10.461 0 00-7 5.94C423.36 805.72 388.87 800 378 797a10.711 10.711 0 00-6.8.41c-42.71 17.18-53-18.53-55.42-33.83a10.586 10.586 0 00-7-8.32c-27.18-9.49-21.71-33-16.44-45.55a10.547 10.547 0 00-3.85-12.84c-26.85-18.17-18.73-43.06-12.5-55a10.38 10.38 0 00-2.09-12.3c-25.49-24.15-8.28-49.19.52-59a10.518 10.518 0 002.11-10.34c-15-45.36-1.2-75 15.37-79.67a10.443 10.443 0 007.38-12.32c-7.9-34.74 18.12-56.24 33.22-60.1a10.482 10.482 0 007.94-10.14c-.26-44.36 39.11-48.82 56.69-48.6a10.422 10.422 0 0010.17-7.49c12.15-42.17 52.24-42.15 69.95-39.93a10.472 10.472 0 0011.09-6.75c13.32-35.63 45.83-32.24 60.79-28.51a10.463 10.463 0 0011.42-4.63c17.35-27.85 54-24.3 69.76-21.25a10.522 10.522 0 0011.05-5c23.28-39.29 62.4-25.7 78.15-18a10.436 10.436 0 0012-2.15c26.1-26.84 58.88-15.61 70.88-6.86 3.76 2.74 8.3 1.63 12.56-.24 53.29-23.45 63.52 11.41 75.49 22.41a10.512 10.512 0 0011.43 1.82c55.13-24.44 66 11.82 74.17 24.56a10.335 10.335 0 009.07 4.74c15-.51 59.53-12.4 68.82 36 .91 4.74 4.13 8.67 8.9 9.44 14.88 2.39 46.89 9.68 48.24 42.63.1 2.113.84 4.146 2.12 5.833a10.5 10.5 0 005.03 3.627c14 4.78 50 32.66 36.09 66.63a10.34 10.34 0 00-.34 6.767c.65 2.23 2.02 4.178 3.91 5.533 12.36 8.92 34.63 30 17.61 57.42a10.446 10.446 0 00-1.36 7.364 10.437 10.437 0 003.91 6.386c12.51 9.74 32.24 31.07 11.34 58.25z" fill="url(#prefix__paint12_linear_449_22)" stroke="#000" stroke-width="20" stroke-miterlimit="10" />
    </g>
    <defs>
        <linearGradient id="prefix__paint0_linear_449_22" x1="0" y1="0" x2="1500" y2="1500" gradientUnits="userSpaceOnUse">
            <stop stop-color="#D0F893" />
            <stop offset="1" stop-color="#5CC1D2" />
        </linearGradient>
        <linearGradient id="prefix__paint1_linear_449_22" x1="386" y1="1050" x2="1222.5" y2="1500" gradientUnits="userSpaceOnUse">
            <stop stop-color="#FDFC3F" />
            <stop offset=".479" stop-color="#FC6BDD" />
            <stop offset="1" stop-color="#59EBFF" />
        </linearGradient>
        <linearGradient id="prefix__paint2_linear_449_22" x1="417" y1="495.5" x2="1096" y2="1147" gradientUnits="userSpaceOnUse">
            <stop stop-color="#BFC7FF" />
            <stop offset="1" stop-color="#8C95CF" />
        </linearGradient>
        <linearGradient id="prefix__paint3_linear_449_22" x1="792.5" y1="965.187" x2="1019.41" y2="1112.35" gradientUnits="userSpaceOnUse">
            <stop stop-color="#9EA6E0" />
            <stop offset=".519" stop-color="#979FD9" />
            <stop offset=".777" stop-color="#949CD7" />
            <stop offset="1" stop-color="#939BD6" />
        </linearGradient>
        <linearGradient id="prefix__paint4_linear_449_22" x1="823.683" y1="942.93" x2="823.683" y2="996.6" gradientUnits="userSpaceOnUse">
            <stop stop-color="#A2FFC2" />
            <stop offset="1" stop-color="#00FF5E" />
        </linearGradient>
        <linearGradient id="prefix__paint5_linear_449_22" x1="827.758" y1="999.77" x2="827.758" y2="1054.61" gradientUnits="userSpaceOnUse">
            <stop stop-color="#FF8D8D" />
            <stop offset="1" stop-color="#FF0001" />
        </linearGradient>
        <linearGradient id="prefix__paint6_linear_449_22" x1="878.879" y1="942.93" x2="878.879" y2="999.77" gradientUnits="userSpaceOnUse">
            <stop stop-color="#FFAEFB" />
            <stop offset="1" stop-color="#FF00F8" />
        </linearGradient>
        <linearGradient id="prefix__paint7_linear_449_22" x1="944.773" y1="947.172" x2="944.773" y2="998.322" gradientUnits="userSpaceOnUse">
            <stop stop-color="#91C3FF" />
            <stop offset="1" stop-color="#0074FF" />
        </linearGradient>
        <linearGradient id="prefix__paint8_linear_449_22" x1="1006.36" y1="944.871" x2="1006.36" y2="998.321" gradientUnits="userSpaceOnUse">
            <stop stop-color="#B87EFF" />
            <stop offset="1" stop-color="#6F00FF" />
        </linearGradient>
        <linearGradient id="prefix__paint9_linear_449_22" x1="884.419" y1="996.602" x2="884.419" y2="1054.61" gradientUnits="userSpaceOnUse">
            <stop stop-color="#FFFFF9" />
            <stop offset="1" stop-color="#F9FF00" />
        </linearGradient>
        <linearGradient id="prefix__paint10_linear_449_22" x1="950.561" y1="999.77" x2="950.561" y2="1054.61" gradientUnits="userSpaceOnUse">
            <stop stop-color="#FFB79B" />
            <stop offset="1" stop-color="#FF4600" />
        </linearGradient>
        <linearGradient id="prefix__paint11_linear_449_22" x1="1006.87" y1="994.512" x2="1006.87" y2="1056.66" gradientUnits="userSpaceOnUse">
            <stop stop-color="#C1E2F6" />
            <stop offset="1" stop-color="#556775" />
        </linearGradient>
        <linearGradient id="prefix__paint12_linear_449_22" x1="370.5" y1="379.001" x2="1125" y2="678.501" gradientUnits="userSpaceOnUse">
            <stop stop-color="#FCFB3E" />
            <stop offset=".5" stop-color="#FB5EE9" />
            <stop offset="1" stop-color="#58EAFF" />
        </linearGradient>
        <clipPath id="prefix__clip0_449_22">
            <path fill="#fff" d="M0 0h1500v1500H0z" />
        </clipPath>
    </defs>
</svg>
