<svg width="1500" height="1500" fill="none" xmlns="http://www.w3.org/2000/svg">
    <g clip-path="url(#prefix__clip0_449_21)">
        <path fill="url(#prefix__paint0_linear_449_21)" d="M0 0h1500v1500H0z" />
        <path d="M1263 1500H289.33l3.73-66.49 22.17-107.35L361 1203l57.62-67.7s8.91-6.18 25.4-15.74l.69-.4c2.23-1.28 4.59-2.63 7.08-4 5.32-3 11.25-6.21 17.74-9.61 8.63-4.53 18.26-9.36 28.83-14.36 7.273-3.43 14.98-6.93 23.12-10.48 64.69-28.13 195.37-13.16 195.37-13.16s179.93-19.1 329.4 30.69l2.09.7.4.14c6.27 2.12 12.47 4.37 18.62 6.75l.8.31C1221.35 1165.74 1263 1500 1263 1500z" fill="url(#prefix__paint1_linear_449_21)" />
        <path d="M1122 1500H482.719s14.6-102.81 14.89-104.16c.16-.75 5.35-20.38 9.88-37.48 3.54-13.39 6.68-25.22 6.68-25.22l-7-41.2-13.59-80.17s-35.41-62.15-46.49-85.15a62.422 62.422 0 01-3.06-7c-.24-.75-.3-1.21-.16-1.35a56.197 56.197 0 017.23-4.17c4.75-2.53 11.27-5.85 17.94-9.21 14-7 28.51-14.16 28.51-14.16l.82.49 8.51 5.1 84.12 50.38 70 27.76 13.58 5.39v.09c.09.44.55 2.47 1.49 5.71l.18.63c.12.43.26.88.4 1.35 0 .12.07.23.11.35.09.32.19.64.29 1a.565.565 0 000 .13 124.437 124.437 0 0012.31 27.07c13 21.59 36.75 47.51 81.14 73.38 1.44.84 2.904 1.68 4.39 2.52.468.49.811 1.08 1 1.73 1.46 3.51 3.32 11 4.65 11.2 0 0 40.23 23 40.26 23l.61.06c4.465.53 8.98.44 13.42-.26 32.63-5.36 34.42-46.34 49.23-59.56.21-.18.41-.37.61-.56 14.4-13.07 19.65-26.22 19.65-26.22l4-23.61 3.93-23v-30.5l30.27-10.79 40.48-14.4 53.761-34.82 9.48-6.14.5-.32 1.59 1 .35.23 17.57 11.28 8.36 5.37-.11 4.47v.74l-3.93 160-.49 19.75 11.26 39.08 17.84 61.93L1122 1500z" fill="url(#prefix__paint2_linear_449_21)" />
        <path d="M954.211 1323.32l12.2-23.4 30.36 34h16.999l-51.999-58.93-30.72 58.93h57.64l-20.12-22.55-6.24 12-8.12-.05z" fill="#fff" />
        <path d="M634.93 1164.54s17.82 72.88 183 182a20.29 20.29 0 0025.25-2.51c27.83-27.11 95.09-99.72 99.63-191.22" stroke="#fff" stroke-width="20" stroke-miterlimit="10" stroke-linecap="round" />
        <path d="M531.14 1371.41c-9.12 44.92-14.91 82.08-18.23 116.94L511.8 1500h-20.05c0-.31 0-.63.05-1l1.2-12.59c3.39-35.59 9.28-73.41 18.54-119 .08-.37.15-.75.22-1.13 9.84-49.47 15-145.34-55.75-245.36a399.48 399.48 0 00-4.19-5.81 9.682 9.682 0 01-.67-1 9.994 9.994 0 01-.944-7.28 10.03 10.03 0 014.284-5.97 9.98 9.98 0 017.203-1.42 9.958 9.958 0 016.237 3.87l1.16 1.59.5.69c1.35 1.85 2.66 3.7 3.95 5.55 74.31 106.23 68.17 208.23 57.6 260.27zM1111.83 1500h-20.25l-10.86-48.68c-7.71-34.55-15.38-65.35-23.46-94.17a560.93 560.93 0 01-19.63-180.85c1.88-33.39 6.34-57.43 8.73-68.45.89-4.09 1.49-6.38 1.58-6.7.18-.69.45-1.36.78-2a.139.139 0 010-.09 10.02 10.02 0 015.24-4.65c2.25-.87 4.74-.89 7-.07 2.27.82 4.16 2.44 5.34 4.54a10.01 10.01 0 011.04 6.93l-.12.5c0 .06-.39 1.48-1 4.12-.32 1.42-.7 3.2-1.13 5.32-.56 2.79-1.19 6.16-1.86 10.07a467.162 467.162 0 00-5.74 52.24 542.136 542.136 0 0017.51 168.41c.47 1.76.96 3.53 1.45 5.3 6.65 23.69 13 48.7 19.34 76 0 .18.08.36.13.54 1.41 6.12 2.83 12.35 4.25 18.7l8.19 36.68c.06.3.13.6.19.89l3 13.29c.17.7.26 1.41.28 2.13z" fill="#fff" />
        <path d="M1273 1500h-20.19c-4.9-24.54-57.1-278.34-131.07-347.58-76.33-71.44-231.579-74.83-235.219-74.9H587.29c-3.459.23-47.569 3.5-97.759 25.85-30.31 13.49-56.9 31.21-79 52.67-27.59 26.74-48.38 59.47-61.79 97.29-55.76 157.15-49.46 245-49.39 245.85v.82h-20c-.66-9.94-4.61-98 50.54-253.36 14.51-40.9 37.07-76.32 67.06-105.28 23.93-23.12 52.6-42.15 85.18-56.57 55.32-24.47 102.42-27.15 104.4-27.25h300.18c1.68 0 41.83.65 92.55 10.67 68.759 13.59 121.289 37 156.129 69.62 34.84 32.62 68.48 103.27 100.21 210.21 23.4 78.84 37.07 149.38 37.2 150.08.13.62.19 1.25.2 1.88z" fill="#000" />
        <path d="M661 1174.46c23 54.07 122 124.83 162.62 155.18a7.977 7.977 0 005.667 1.52 7.965 7.965 0 005.183-2.75c29.2-34.3 86.42-104.89 86.83-164.39" stroke="#000" stroke-width="20" stroke-miterlimit="10" stroke-linecap="round" />
        <path d="M511.761 1366.3c0 .32 0 .66-.05 1-.22 2.89-14 61.77-19 132.69h-20v-.69a924.796 924.796 0 0119.51-134.6c.57-2.4 2.009-4.51 4.04-5.92a10.042 10.042 0 017.96-1.51c1.105.24 2.181.61 3.21 1.08 3 1.4 4.44 3.71 4.33 7.95zM1132 1500h-20.2c-.55-2.72-1.65-8.14-3.2-15.47-.06-.29-.13-.59-.19-.89-2.91-13.76-7.3-33.87-12.44-55.38 0-.18-.09-.36-.13-.54-6.23-26-13.56-54-20.69-75.23a9.999 9.999 0 016.19-12.63h.1l.39-.11c2.48-.72 5.13-.46 7.42.74a9.996 9.996 0 014.85 5.66c18.25 54.24 36.92 148 37.71 151.94.12.63.19 1.27.19 1.91z" fill="#000" />
        <path d="M443.891 1118.21s87.82 94.17 57 252.68M1084.46 1348.82c-32.76-108.75-9.81-228.49-9.81-228.49" stroke="#000" stroke-width="20" stroke-miterlimit="10" stroke-linecap="round" />
        <path d="M759.585 1556.96c-10.237-9.39-16.514-22.76-18.832-40.12l-11.826-88.7c-2.465-18.59-.014-32.76 7.352-42.51 7.366-9.75 19.686-14.63 36.96-14.63 17.372 0 31.05 4.88 41.035 14.63 9.985 9.75 16.217 23.92 18.695 42.51l11.827 88.7c2.331 17.5-.378 30.91-8.13 40.23-7.751 9.32-20.004 13.97-36.76 13.94-16.609 0-30.049-4.69-40.321-14.05zm42.012-26.06a15.126 15.126 0 001.481-9.45l-12.919-96.92c-.756-5.63-1.985-9.95-3.665-12.92-1.681-2.97-4.527-4.45-8.487-4.45-3.959 0-6.302 1.48-7.173 4.45-.872 2.97-.862 7.29-.105 12.92l12.918 96.92c.406 3.44 1.75 6.71 3.886 9.45a9.315 9.315 0 003.274 2.9 9.228 9.228 0 004.236 1.1c1.37.04 2.724-.31 3.896-1.02a7.117 7.117 0 002.711-2.98h-.053zM901.836 1566.55a47.845 47.845 0 01-18.779-13.13 39.217 39.217 0 01-9.211-21.01l-2.805-21h37.685l.515 3.88a57.03 57.03 0 003.896 15.55 8.915 8.915 0 003.46 4.26 8.96 8.96 0 005.3 1.45c4.274 0 7.121-1.18 8.56-3.55 1.438-2.37 1.848-5.9 1.218-10.63l-5.252-39.31a16.96 16.96 0 01-7.352 8.4 24.849 24.849 0 01-13.065 3.15c-10.671 0-19.221-2.13-25.649-6.4-6.427-4.27-11.325-10.58-14.693-18.92-3.403-8.4-6.018-19.45-7.846-33.14-2.801-20.88-.98-36.96 5.462-48.23 6.441-11.27 18.789-16.91 37.044-16.92 13.401 0 24.296 2.29 32.685 6.86a44.999 44.999 0 0119.199 20.57c4.426 9.1 7.611 21.01 9.558 35.71l7.069 53.04c2.702 20.27 3.609 36.23 2.72 47.88-.89 11.65-4.804 20.57-11.743 26.75-6.952 6.17-18.278 9.26-33.977 9.25a64.43 64.43 0 01-23.999-4.51zm19.704-120.57l-3.267-24.46c-1.267-9.6-5.181-14.4-11.742-14.4-4.117 0-6.53 1.64-7.237 4.91-.707 3.28-.57 8.58.41 15.89l2.101 16c1.4 10.67 5.156 16 11.269 16 6.904 0 9.726-4.65 8.466-13.94z" fill="#fff" />
        <path d="M775 1185c231.41 0 419-168.12 419-375.5 0-207.383-187.59-375.5-419-375.5-231.407 0-419 168.117-419 375.5 0 207.38 187.593 375.5 419 375.5z" fill="url(#prefix__paint3_linear_449_21)" />
        <path d="M775 1185c231.41 0 419-168.12 419-375.5 0-207.383-187.59-375.5-419-375.5-231.407 0-419 168.117-419 375.5 0 207.38 187.593 375.5 419 375.5z" stroke="#000" stroke-width="20" />
        <path d="M844.63 1012.87h141.62M829.06 777.09l-31.89-.02-34.13-.03-43.3-.04" stroke="#000" stroke-width="20" stroke-linecap="round" />
        <path d="M805.53 785.89A29.91 29.91 0 11763 777h34.13a29.774 29.774 0 018.4 8.89z" fill="#000" stroke="#000" stroke-width="20" stroke-linecap="round" />
        <path d="M1081.06 777l-43.31.04-34.13.03-31.88.02" stroke="#000" stroke-width="20" stroke-linecap="round" />
        <path d="M995.26 785.89a29.915 29.915 0 00-4.456 16.588 29.915 29.915 0 0018.886 26.946 29.908 29.908 0 0032.21-6.709 29.836 29.836 0 008.11-15.14 29.862 29.862 0 00-1.55-17.105 29.882 29.882 0 00-10.71-13.43h-34.13a29.957 29.957 0 00-8.36 8.85z" fill="#000" stroke="#000" stroke-width="20" stroke-linecap="round" />
        <path opacity=".5" d="M650.33 766.53s-2.59-63.6 77.41-64.6c80-1 105.45 2.24 105.45 2.24l29.55 17.76 13 59.31s1 26 0 31.36c-1 5.36-25.33 41.83-25.33 41.83s-41.37 47.5-90.52 42-92.15-45.5-92.15-45.5-21-51.25-21.51-51.62c-.51-.37 4.1-32.78 4.1-32.78zM971.33 725.75s24.62-35.82 106.52-28.32c81.9 7.5 88.3 28.32 88.3 28.32s3.59-3.82 6.59 23.18 6 40 6 40-3 17-4 21-2.41 19-5.21 24-9 15.59-11.4 18.29c-2.4 2.7-11.94 13.84-20.67 20.77-8.73 6.93-28.37 15.28-30 16.61-1.63 1.33-10 8.21-17.32 7.26-7.32-.95-16.4 1.13-32.4.07-16-1.06-56.74-16.431-58.738-20.431-2-4-19-8.5-24-24.5s-7.902-19.909-9.582-23.489c-1.68-3.58-8.68-9.82-8.68-26.2s5-29.38 6-35.38c1-6 8.59-41.18 8.59-41.18z" fill="red" />
        <path d="M681.5 720.5S687 709.23 739 703l97 169.89s-18 18.68-56.07 18.1L681.5 720.5zM756.58 700.12s-4.78 3.73 13-7.12L856 850.55s5.57 6.48-9 9.45l-90.42-159.88zM991 729.68s-1-20.45 51-26.68l97 169.89s-18 18.68-56.07 18.1L991 729.68zM1059.58 700.12s-4.78 3.73 13.05-7.12L1159 850.55s5.57 6.48-9 9.45l-90.42-159.88z" fill="#fff" fill-opacity=".3" />
        <path d="M722.89 697.43h79.71a72.65 72.65 0 0172.65 72.65v13.85a112.499 112.499 0 01-112.5 112.5 112.499 112.499 0 01-112.5-112.5v-13.86a72.653 72.653 0 0172.64-72.64v0zM1028.89 697.43h79.71c19.27 0 37.75 7.654 51.37 21.278a72.63 72.63 0 0121.28 51.372v13.85a112.5 112.5 0 11-225 0v-13.86a72.653 72.653 0 0172.64-72.64zM874.6 792.43a68.918 68.918 0 0181.64 0M865.74 736.43h91M650.24 755.43l-266.5-60.5" stroke="#000" stroke-width="20" stroke-miterlimit="10" />
        <path d="M349.24 858.21s-6.78-49.71-1-75l-100.87 48.86 9.37 17.54 92.5 8.6z" fill="#F8C25A" />
        <path d="M1148.39 620.5s27.32 40.85 36.76 78.82l55.14-40.91 18.47-26.85-110.37-11.06z" fill="#DC7E0E" />
        <path d="M287 736.5l-39.5 81 191-81 274-72c238.8-42.4 461.17-41.33 542.5-35.5-16-51.6-119.33-99.83-169-117.5-22-66.4-108.83-139.33-149.5-167.5-22-17.17-102.9-49.8-250.5-43-147.6 6.8-242.83 118.5-272 173.5L364 607l7 57.5-84 72z" fill="url(#prefix__paint4_linear_449_21)" />
        <path d="M377 578l-18 89 129-51.5 183-48L817 544l269-26-30.5-69.5h-149l-169.5 14L547 513l-170 65z" fill="url(#prefix__paint5_linear_449_21)" />
        <path d="M359.62 860.22c-9.834-.48-19.66-1.11-29.48-1.89-27.42-2.21-54.33-5.66-75-11a22.127 22.127 0 01-16.578-22.57 22.12 22.12 0 012.768-9.63c18.35-33 58.45-95.81 121.61-147.4 0 0-3.81-281.9 284.44-360.63 288.25-78.73 426.62 163.81 443.16 212.06 0 0 101.59 21.94 165 96.62a22.132 22.132 0 01.92 27.62c-9.88 13.1-31.84 33.23-80.61 57.16M362.92 667.72s227.3-133.33 727.6-148.57" stroke="#000" stroke-width="20" stroke-miterlimit="10" />
        <path d="M240.51 835s36.71-44.83 249-110.11a2300.643 2300.643 0 01590.73-100.1c63.88-2.36 127.62-1.87 180.53 4.2M376.39 578.38S676 422.5 1052.12 451.79" stroke="#000" stroke-width="20" stroke-miterlimit="10" />
    </g>
    <defs>
        <linearGradient id="prefix__paint0_linear_449_21" x1="1500" y1="1500" x2="0" y2="0" gradientUnits="userSpaceOnUse">
            <stop stop-color="#FFD130" />
            <stop offset="1" stop-color="#FFEEDB" />
        </linearGradient>
        <linearGradient id="prefix__paint1_linear_449_21" x1="467" y1="1081.5" x2="1180" y2="1500" gradientUnits="userSpaceOnUse">
            <stop stop-color="#BBC2FB" />
            <stop offset="1" stop-color="#929AD5" />
        </linearGradient>
        <linearGradient id="prefix__paint2_linear_449_21" x1="475.5" y1="1034" x2="1009.5" y2="1500" gradientUnits="userSpaceOnUse">
            <stop stop-color="#CFF895" />
            <stop offset="1" stop-color="#62C4D0" />
        </linearGradient>
        <linearGradient id="prefix__paint3_linear_449_21" x1="417" y1="495.5" x2="1096" y2="1147" gradientUnits="userSpaceOnUse">
            <stop stop-color="#BFC7FF" />
            <stop offset="1" stop-color="#8C95CF" />
        </linearGradient>
        <linearGradient id="prefix__paint4_linear_449_21" x1="587.5" y1="319" x2="1023" y2="801" gradientUnits="userSpaceOnUse">
            <stop stop-color="#FFD570" />
            <stop offset="1" stop-color="#DA7908" />
        </linearGradient>
        <linearGradient id="prefix__paint5_linear_449_21" x1="463" y1="431" x2="978.5" y2="636.5" gradientUnits="userSpaceOnUse">
            <stop stop-color="#FF7E83" />
            <stop offset="1" stop-color="#EC2125" />
        </linearGradient>
        <clipPath id="prefix__clip0_449_21">
            <path fill="#fff" d="M0 0h1500v1500H0z" />
        </clipPath>
    </defs>
</svg>
