<svg xmlns="http://www.w3.org/2000/svg" xmlns:xlink="http://www.w3.org/1999/xlink" viewBox="0 0 467.51 433.84"><defs><linearGradient id="prefix__Dégradé_sans_nom_20" x1="-2287.68" y1="441.31" x2="-2292.97" y2="441.49" gradientTransform="matrix(91.25 0 0 -35.32 209216.94 15761.48)" gradientUnits="userSpaceOnUse"><stop offset="0" stop-color="#4610f1"/><stop offset="1" stop-color="#0ac3ce"/></linearGradient><linearGradient id="prefix__Dégradé_sans_nom_20-2" x1="-2294.78" y1="438.61" x2="-2300.06" y2="438.8" gradientTransform="matrix(139.98 0 0 -31.14 321866.16 13847.26)" xlink:href="#prefix__Dégradé_sans_nom_20"/><linearGradient id="prefix__Dégradé_sans_nom_20-3" x1="-2294.17" y1="434.28" x2="-2299.46" y2="434.46" gradientTransform="matrix(133.85 0 0 -26.16 307703.85 11604.66)" xlink:href="#prefix__Dégradé_sans_nom_20"/><linearGradient id="prefix__Dégradé_sans_nom_20-4" x1="-2296.39" y1="399.51" x2="-2301.68" y2="399.69" gradientTransform="matrix(159.3 0 0 -11.46 366522.56 4791.24)" xlink:href="#prefix__Dégradé_sans_nom_20"/><linearGradient id="prefix__Dégradé_sans_nom_20-5" x1="-2285.78" y1="439.45" x2="-2291.07" y2="439.63" gradientTransform="matrix(83.49 0 0 -32.33 191287.08 14471.31)" xlink:href="#prefix__Dégradé_sans_nom_20"/><linearGradient id="prefix__Dégradé_sans_nom_20-6" x1="-2287.68" y1="441.31" x2="-2292.97" y2="441.49" gradientTransform="matrix(91.25 0 0 -35.32 209465.7 15858.38)" xlink:href="#prefix__Dégradé_sans_nom_20"/><linearGradient id="prefix__Dégradé_sans_nom_20-7" x1="-2294.78" y1="438.61" x2="-2300.06" y2="438.8" gradientTransform="matrix(139.98 0 0 -31.14 322161.01 13909.17)" xlink:href="#prefix__Dégradé_sans_nom_20"/><linearGradient id="prefix__Dégradé_sans_nom_20-8" x1="-2294.17" y1="434.3" x2="-2299.46" y2="434.48" gradientTransform="matrix(133.85 0 0 -26.17 307982.57 11561.92)" xlink:href="#prefix__Dégradé_sans_nom_20"/><linearGradient id="prefix__Dégradé_sans_nom_20-9" x1="-2296.39" y1="399.54" x2="-2301.68" y2="399.72" gradientTransform="matrix(159.3 0 0 -11.46 366830.78 4803.85)" xlink:href="#prefix__Dégradé_sans_nom_20"/><linearGradient id="prefix__Dégradé_sans_nom_20-10" x1="-2285.78" y1="439.47" x2="-2291.07" y2="439.65" gradientTransform="matrix(83.49 0 0 -32.33 191511.58 14390.86)" xlink:href="#prefix__Dégradé_sans_nom_20"/><linearGradient id="prefix__Dégradé_sans_nom_20-11" x1="-2249.85" y1="452.54" x2="-2255.14" y2="452.72" gradientTransform="matrix(31.95 0 0 -80.16 72280.66 36394.46)" xlink:href="#prefix__Dégradé_sans_nom_20"/><linearGradient id="prefix__Dégradé_sans_nom_20-12" x1="-2226.8" y1="455.77" x2="-2232.09" y2="455.96" gradientTransform="matrix(22.89 0 0 -126.32 51297.95 57673.4)" xlink:href="#prefix__Dégradé_sans_nom_20"/><linearGradient id="prefix__Dégradé_sans_nom_20-13" x1="-2268.94" y1="455.83" x2="-2274.23" y2="456.01" gradientTransform="matrix(47.54 0 0 -127.55 108241.18 58241.94)" xlink:href="#prefix__Dégradé_sans_nom_20"/><linearGradient id="prefix__Dégradé_sans_nom_20-14" x1="-2241.97" y1="456.59" x2="-2247.26" y2="456.77" gradientTransform="matrix(28.14 0 0 -147.7 63422.98 67532.89)" xlink:href="#prefix__Dégradé_sans_nom_20"/><linearGradient id="prefix__Dégradé_sans_nom_20-15" x1="-2268.29" y1="452.71" x2="-2273.58" y2="452.89" gradientTransform="matrix(46.76 0 0 -81.73 106429.06 37117.03)" xlink:href="#prefix__Dégradé_sans_nom_20"/><linearGradient id="prefix__Dégradé_sans_nom_20-16" x1="-2249.85" y1="452.54" x2="-2255.14" y2="452.72" gradientTransform="matrix(31.95 0 0 -80.16 72224.23 36611.35)" xlink:href="#prefix__Dégradé_sans_nom_20"/><linearGradient id="prefix__Dégradé_sans_nom_20-17" x1="-2226.8" y1="455.77" x2="-2232.09" y2="455.95" gradientTransform="matrix(22.89 0 0 -126.31 51290.61 57936.86)" xlink:href="#prefix__Dégradé_sans_nom_20"/><linearGradient id="prefix__Dégradé_sans_nom_20-18" x1="-2268.94" y1="455.82" x2="-2274.23" y2="456.01" gradientTransform="matrix(47.54 0 0 -127.55 108341.63 58508.76)" xlink:href="#prefix__Dégradé_sans_nom_20"/><linearGradient id="prefix__Dégradé_sans_nom_20-19" x1="-2241.98" y1="456.58" x2="-2247.27" y2="456.76" gradientTransform="matrix(28.15 0 0 -147.71 63475.79 67822.71)" xlink:href="#prefix__Dégradé_sans_nom_20"/><linearGradient id="prefix__Dégradé_sans_nom_20-20" x1="-2268.29" y1="452.71" x2="-2273.58" y2="452.89" gradientTransform="matrix(46.76 0 0 -81.72 106555.75 37332.89)" xlink:href="#prefix__Dégradé_sans_nom_20"/><radialGradient id="prefix__Dégradé_sans_nom_21" cx="-2303.06" cy="464.03" r="1.36" gradientTransform="matrix(207.17 0 0 207.15 477276.64 -93468.85)" gradientUnits="userSpaceOnUse"><stop offset="0" stop-color="#2869df" stop-opacity=".82"/><stop offset="0" stop-color="#2869df" stop-opacity=".8"/><stop offset=".38" stop-color="#2869df" stop-opacity=".48"/><stop offset=".67" stop-color="#2869df" stop-opacity=".24"/><stop offset=".89" stop-color="#2869df" stop-opacity=".09"/><stop offset="1" stop-color="#2869df" stop-opacity=".04"/></radialGradient><radialGradient id="prefix__Dégradé_sans_nom_22" cx="-2301.34" cy="465.07" r=".85" gradientTransform="translate(397826.53 -77619.91) scale(172.81)" gradientUnits="userSpaceOnUse"><stop offset="0" stop-color="#dc7947" stop-opacity=".82"/><stop offset="0" stop-color="#2869df" stop-opacity=".8"/><stop offset=".38" stop-color="#2869df" stop-opacity=".48"/><stop offset=".67" stop-color="#2869df" stop-opacity=".24"/><stop offset=".89" stop-color="#2869df" stop-opacity=".09"/><stop offset="1" stop-color="#2869df" stop-opacity=".04"/></radialGradient><radialGradient id="prefix__Dégradé_sans_nom_24" cx="-2298.01" cy="466.91" r="1.33" gradientTransform="matrix(139.25 0 0 139.24 320272.38 -62112.02)" gradientUnits="userSpaceOnUse"><stop offset="0" stop-color="#fff"/><stop offset=".21" stop-color="#fff" stop-opacity=".79"/><stop offset="1" stop-color="#fff" stop-opacity="0"/></radialGradient><radialGradient id="prefix__Dégradé_sans_nom_24-2" cx="-2296.91" cy="467.71" r="1.47" gradientTransform="matrix(126.6 0 0 126.57 291085.52 -56291.94)" xlink:href="#prefix__Dégradé_sans_nom_24"/><radialGradient id="prefix__Dégradé_sans_nom_25" cx="-2301.41" cy="464.75" r="1.53" gradientTransform="matrix(177.47 0 0 177.44 408466.22 -79798.63)" gradientUnits="userSpaceOnUse"><stop offset="0" stop-color="#2869df"/><stop offset=".17" stop-color="#2869df" stop-opacity=".8"/><stop offset=".47" stop-color="#2869df" stop-opacity=".48"/><stop offset=".72" stop-color="#2869df" stop-opacity=".24"/><stop offset=".9" stop-color="#2869df" stop-opacity=".09"/><stop offset="1" stop-color="#2869df" stop-opacity=".04"/></radialGradient><clipPath id="prefix__clip-path"><path class="prefix__cls-1" d="M348.07 249.66l-11.76 27.42c-11.88 27.69-38.14 48.85-73.63 55.21-60.79 10.88-125.66-25.82-144.88-82-8-23.36-6.84-46.42 1.63-66.15l11.76-27.42c-8.47 19.74-9.64 42.8-1.63 66.16 19.22 56.15 84.1 92.84 144.88 82 35.49-6.36 61.75-27.53 73.63-55.22z"/></clipPath><clipPath id="prefix__clip-path-2"><path class="prefix__cls-1" d="M240.9 334.19c-53.79 0-106.17-34.4-123.1-83.87a97.42 97.42 0 01-5.4-31.55 87.32 87.32 0 017-34.6l11.76-27.41a87.36 87.36 0 00-7 34.6 97.37 97.37 0 005.4 31.55c.19.57.39 1.13.6 1.7 17.56 48.54 69.33 82.1 122.5 82.14h.08a124.21 124.21 0 0021.69-1.91 110.44 110.44 0 0029.44-9.56l.89-.45.29-.14.58-.3.28-.14.27-.14.55-.29.25-.14h.05l.25-.14.26-.14.25-.14h.06l.24-.14h.05l.25-.13.24-.13.24-.13h.06l.23-.13h.06l.24-.14.22-.13.24-.13h.06l.23-.13h.06l.23-.14.21-.12h.06l.22-.13.08-.05.21-.13h.07l.19-.11.09-.06.18-.11.09-.06.19-.12.1-.06.2-.12.08-.06.16-.09.12-.08.15-.09.1-.07.18-.11.12-.08.13-.08.15-.1.12-.08.17-.1.11-.08.13-.08.16-.11.13-.08.11-.07.16-.11.12-.08.14-.1.14-.09.12-.09.11-.07.18-.12.08-.06.22-.14.06-.05.23-.15.06-.05.14-.1.27-.18.26-.19.44-.31.25-.18.26-.2.74-.54.73-.55.27-.21a89.57 89.57 0 0025.4-30.18l.14-.27v-.05l.23-.45.14-.3v-.05l.11-.23v-.08l.09-.18.06-.12.06-.13.05-.1.09-.2v-.1l.08-.17.06-.13.06-.11.09-.19v-.1l.08-.16.06-.13.07-.15v-.08l.1-.21v-.08l.1-.22v-.07l.1-.21v-.07l.09-.2v-.05l.1-.23v-.06l.1-.24.11-.25-11.76 27.41-.12.27-.11.25-.12.27c-.08.19-.16.37-.25.56l-.12.27a88.18 88.18 0 01-17 24.81 98 98 0 01-1.77 1.76l-.89.86-.68.63-.22.21-.68.62-.22.2-.46.4-.22.2-.23.2-.46.4-.23.2-.71.6-.23.19-.72.6c-.32.27-.65.53-1 .79l-1 .78a101.86 101.86 0 01-31.6 16.14 116.87 116.87 0 01-13.56 3.27 122.31 122.31 0 01-21.7 1.91h-.11z"/></clipPath><style>.prefix__cls-1,.prefix__cls-34{fill:none}.prefix__cls-2{opacity:.6}.prefix__cls-34{stroke:#2869df;stroke-miterlimit:10;stroke-width:2.83px;opacity:.32;isolation:isolate}</style></defs><g id="prefix__Calque_2" data-name="Calque 2"><g id="prefix__Calque_6" data-name="Calque 6"><g id="prefix__Groupe_1212" data-name="Groupe 1212"><g id="prefix__Groupe_1197" data-name="Groupe 1197"><g id="prefix__Groupe_1187" data-name="Groupe 1187" class="prefix__cls-2"><g id="prefix__Groupe_1182" data-name="Groupe 1182"><g id="prefix__Groupe_1181" data-name="Groupe 1181"><g id="prefix__Groupe_1180" data-name="Groupe 1180"><g id="prefix__Groupe_1179" data-name="Groupe 1179"><path id="prefix__Tracé_3521" data-name="Tracé 3521" d="M102.24 184l-26.61-22.8a4.78 4.78 0 00.63-3.24 7.38 7.38 0 00-7-5.9c-3.41-.1-5.8 2.4-5.33 5.56a7.41 7.41 0 007 5.9 5.57 5.57 0 003.44-1l27.27 23.37 53.46 1.47-.29-1.93zm-31.59-22.46a4.9 4.9 0 01-4.65-3.92 3.22 3.22 0 012.71-3.62 3.3 3.3 0 01.83 0 4.89 4.89 0 014.64 3.92 3.22 3.22 0 01-2.7 3.67 3.29 3.29 0 01-.83-.05z" fill="url(#prefix__Dégradé_sans_nom_20)"/><path id="prefix__Tracé_3522" data-name="Tracé 3522" d="M77.43 197.46L52.76 176l-23.36-.64a7.54 7.54 0 00-6.79-4.94c-3.4-.09-5.8 2.4-5.33 5.56a7.41 7.41 0 007 5.9c3.05.08 5.28-1.91 5.38-4.59l22.48.62 24.67 21.43 80.37 2.21-.28-1.93zM24 180a4.92 4.92 0 01-4.66-3.91 3.24 3.24 0 013.54-3.69 4.92 4.92 0 014.66 3.92A3.24 3.24 0 0124 180z" fill="url(#prefix__Dégradé_sans_nom_20-2)"/><path id="prefix__Tracé_3523" data-name="Tracé 3523" d="M80.73 225.94l-18.54 20.25-22.47-.62a7.54 7.54 0 00-6.79-4.93c-3.4-.09-5.8 2.4-5.33 5.55a7.4 7.4 0 007 5.91c3 .08 5.28-1.91 5.38-4.6l23.36.64 18.56-20.25 79.49 2.19-.29-1.93zm-46.4 24.23a4.92 4.92 0 01-4.66-3.92 3.24 3.24 0 013.54-3.68 4.92 4.92 0 014.66 3.91 3.21 3.21 0 01-3.54 3.69z" fill="url(#prefix__Dégradé_sans_nom_20-3)"/><path id="prefix__Tracé_3524" data-name="Tracé 3524" d="M12.17 209.85a7.56 7.56 0 00-6.79-4.92c-3.4-.1-5.79 2.4-5.32 5.55a7.4 7.4 0 007 5.9c3 .09 5.28-1.91 5.38-4.6l146.85 4-.29-1.93zm-5.39 4.6a4.89 4.89 0 01-4.64-3.91 3.22 3.22 0 012.7-3.67 3.29 3.29 0 01.83 0 4.9 4.9 0 014.65 3.91 3.23 3.23 0 01-2.71 3.68 3.29 3.29 0 01-.83 0z" fill="url(#prefix__Dégradé_sans_nom_20-4)"/><path id="prefix__Tracé_3525" data-name="Tracé 3525" d="M109.76 241l-20.6 22a7.48 7.48 0 00-3.75-1.19c-3.42-.09-5.8 2.41-5.34 5.57a7.42 7.42 0 007 5.9c3.4.09 5.79-2.41 5.33-5.57a6.56 6.56 0 00-1.6-3.3L110.91 243l52.59 1.45-.28-1.93zm-23 30.4a4.91 4.91 0 01-4.66-3.92 3.24 3.24 0 013.54-3.69 4.9 4.9 0 014.65 3.92 3.22 3.22 0 01-2.7 3.67 2.88 2.88 0 01-.83 0z" fill="url(#prefix__Dégradé_sans_nom_20-5)"/></g></g></g></g><g id="prefix__Groupe_1186" data-name="Groupe 1186"><g id="prefix__Groupe_1185" data-name="Groupe 1185"><g id="prefix__Groupe_1184" data-name="Groupe 1184"><g id="prefix__Groupe_1183" data-name="Groupe 1183"><path id="prefix__Tracé_3526" data-name="Tracé 3526" d="M365.28 250l26.6 22.8a4.78 4.78 0 00-.63 3.24 7.4 7.4 0 007 5.9c3.41.1 5.8-2.4 5.34-5.56a7.42 7.42 0 00-7-5.91 5.6 5.6 0 00-3.44 1l-27.27-23.38-53.46-1.47.28 1.93zm31.58 22.41a4.92 4.92 0 014.66 3.91 3.25 3.25 0 01-2.72 3.68 3.75 3.75 0 01-.82 0 4.92 4.92 0 01-4.65-3.92 3.21 3.21 0 012.7-3.67 2.89 2.89 0 01.83-.03z" fill="url(#prefix__Dégradé_sans_nom_20-6)"/><path id="prefix__Tracé_3527" data-name="Tracé 3527" d="M390.09 236.46l24.66 21.44 23.36.64a7.56 7.56 0 006.79 4.94c3.4.09 5.8-2.4 5.33-5.57a7.4 7.4 0 00-7-5.89c-3-.08-5.28 1.91-5.38 4.59l-22.5-.61-24.66-21.43-80.38-2.22.29 1.93zM443.5 254a4.9 4.9 0 014.65 3.91 3.22 3.22 0 01-2.71 3.67 3.3 3.3 0 01-.83 0 4.9 4.9 0 01-4.65-3.92 3.22 3.22 0 012.71-3.66 3.3 3.3 0 01.83 0z" fill="url(#prefix__Dégradé_sans_nom_20-7)"/><path id="prefix__Tracé_3528" data-name="Tracé 3528" d="M386.78 208l18.54-20.25 22.47.62a7.57 7.57 0 006.79 4.93c3.4.09 5.8-2.4 5.33-5.56a7.4 7.4 0 00-7-5.9c-3-.09-5.28 1.91-5.38 4.6l-23.36-.65L385.61 206l-79.49-2.18.29 1.93zm46.4-24.23a4.92 4.92 0 014.66 3.91 3.21 3.21 0 01-3.54 3.68 4.9 4.9 0 01-4.66-3.9 3.21 3.21 0 013.54-3.69z" fill="url(#prefix__Dégradé_sans_nom_20-8)"/><path id="prefix__Tracé_3529" data-name="Tracé 3529" d="M455.35 224.07a7.53 7.53 0 006.78 4.92c3.4.1 5.79-2.4 5.33-5.55a7.41 7.41 0 00-7-5.9c-3.05-.09-5.29 1.91-5.39 4.6l-146.84-4 .28 1.93zm5.38-4.6a4.9 4.9 0 014.65 3.91 3.23 3.23 0 01-2.7 3.67 3.3 3.3 0 01-.83 0 4.9 4.9 0 01-4.66-3.9 3.24 3.24 0 012.72-3.68 3.75 3.75 0 01.82 0z" fill="url(#prefix__Dégradé_sans_nom_20-9)"/><path id="prefix__Tracé_3530" data-name="Tracé 3530" d="M357.76 192.9l20.59-22.05a7.38 7.38 0 003.76 1.18c3.41.1 5.8-2.4 5.33-5.56a7.41 7.41 0 00-7-5.9c-3.4-.09-5.79 2.41-5.32 5.56a6.39 6.39 0 001.59 3.3L356.6 191l-52.6-1.5.29 1.93zm22.94-30.4a4.91 4.91 0 014.66 3.92 3.24 3.24 0 01-3.54 3.69 4.89 4.89 0 01-4.64-3.92 3.21 3.21 0 012.69-3.67 2.9 2.9 0 01.83 0z" fill="url(#prefix__Dégradé_sans_nom_20-10)"/></g></g></g></g></g><g id="prefix__Groupe_1196" data-name="Groupe 1196" class="prefix__cls-2"><g id="prefix__Groupe_1191" data-name="Groupe 1191"><g id="prefix__Groupe_1190" data-name="Groupe 1190"><g id="prefix__Groupe_1189" data-name="Groupe 1189"><g id="prefix__Groupe_1188" data-name="Groupe 1188"><path id="prefix__Tracé_3531" data-name="Tracé 3531" d="M248.31 99.74l20.68-21a7.46 7.46 0 003.68 1.13c3.4.1 5.8-2.4 5.33-5.55a7.39 7.39 0 00-7-5.9c-3.4-.1-5.8 2.4-5.33 5.56a6.48 6.48 0 001.66 3.37l-21.2 21.54 7.3 49.63 2.08.05zM267.73 74a3.21 3.21 0 013.54-3.69 4.92 4.92 0 014.66 3.91 3.21 3.21 0 01-3.54 3.68 4.9 4.9 0 01-4.66-3.9z" fill="url(#prefix__Dégradé_sans_nom_20-11)"/><path id="prefix__Tracé_3532" data-name="Tracé 3532" d="M229.28 74.34l19.51-19.43-3.19-21.68a4.76 4.76 0 004.4-5.14v-.37a7.42 7.42 0 00-7-5.9c-3.4-.09-5.79 2.41-5.33 5.57a7.38 7.38 0 006 5.79L246.59 54l-19.51 19.47 11 74.61 2.08.06zm10.36-46.9a3.23 3.23 0 013.53-3.69 4.94 4.94 0 014.66 3.92 3.24 3.24 0 01-3.54 3.69 4.91 4.91 0 01-4.65-3.92z" fill="url(#prefix__Dégradé_sans_nom_20-12)"/><path id="prefix__Tracé_3533" data-name="Tracé 3533" d="M198.45 72.68L173.05 52 170 31.15a4.76 4.76 0 004.33-5.15c0-.13 0-.25-.05-.38a7.4 7.4 0 00-7-5.9c-3.4-.09-5.8 2.41-5.33 5.57a7.37 7.37 0 006 5.79l3.18 21.68 25.4 20.67 10.85 73.78 2.08.06zM164 25.36a3.23 3.23 0 012.72-3.67 2.82 2.82 0 01.82 0 4.9 4.9 0 014.65 3.91 3.23 3.23 0 01-2.7 3.68 3.86 3.86 0 01-.83 0 4.94 4.94 0 01-4.66-3.92z" fill="url(#prefix__Dégradé_sans_nom_20-13)"/><path id="prefix__Tracé_3534" data-name="Tracé 3534" d="M204.74 11.4a4.75 4.75 0 004.34-5.14V5.9A7.4 7.4 0 00202 0c-3.41-.09-5.8 2.4-5.34 5.56a7.39 7.39 0 006 5.79l20 136.3h2.08zm-6-5.79a3.24 3.24 0 013.54-3.68A4.9 4.9 0 01207 5.84a3.22 3.22 0 01-2.7 3.67 3.31 3.31 0 01-.83 0 4.91 4.91 0 01-4.7-3.9z" fill="url(#prefix__Dégradé_sans_nom_20-14)"/><path id="prefix__Tracé_3535" data-name="Tracé 3535" d="M186.68 97.24L159 74.35a4.75 4.75 0 00.67-3.31 7.4 7.4 0 00-7-5.9c-3.4-.09-5.8 2.4-5.33 5.56a7.39 7.39 0 007 5.9 5.61 5.61 0 003.37-.93L184.72 98l7.17 48.81 2.08.06zm-37.33-26.48a3.24 3.24 0 013.54-3.69 4.9 4.9 0 014.65 3.93 3.21 3.21 0 01-2.71 3.66 3.29 3.29 0 01-.83 0 4.91 4.91 0 01-4.65-3.9z" fill="url(#prefix__Dégradé_sans_nom_20-15)"/></g></g></g></g><g id="prefix__Groupe_1195" data-name="Groupe 1195"><g id="prefix__Groupe_1194" data-name="Groupe 1194"><g id="prefix__Groupe_1193" data-name="Groupe 1193"><g id="prefix__Groupe_1192" data-name="Groupe 1192"><path id="prefix__Tracé_3536" data-name="Tracé 3536" d="M219.43 334.1l-20.68 21a7.49 7.49 0 00-3.68-1.13c-3.4-.09-5.8 2.4-5.33 5.56a7.4 7.4 0 007 5.9c3.4.1 5.8-2.4 5.33-5.56a6.42 6.42 0 00-1.67-3.37l21.23-21.5-7.3-49.62h-2.08zM200 359.82a3.24 3.24 0 01-3.54 3.69 4.9 4.9 0 01-4.65-3.91 3.22 3.22 0 012.71-3.67 3.29 3.29 0 01.83 0 4.91 4.91 0 014.65 3.91z" fill="url(#prefix__Dégradé_sans_nom_20-16)"/><path id="prefix__Tracé_3537" data-name="Tracé 3537" d="M238.45 359.49l-19.51 19.44 3.19 21.68a4.76 4.76 0 00-4.35 5.14v.37a7.42 7.42 0 007 5.9c3.4.09 5.79-2.41 5.33-5.57a7.38 7.38 0 00-6-5.79l-3.07-20.86 19.51-19.43-11-74.61-2.08-.06zm-10.36 46.9a3.23 3.23 0 01-2.7 3.68 3.84 3.84 0 01-.83 0 4.94 4.94 0 01-4.66-3.92 3.21 3.21 0 013.54-3.69 4.89 4.89 0 014.65 3.92z" fill="url(#prefix__Dégradé_sans_nom_20-17)"/><path id="prefix__Tracé_3538" data-name="Tracé 3538" d="M269.28 361.16l25.4 20.67 3.07 20.86a4.76 4.76 0 00-4.35 5.13c0 .13 0 .25.05.38a7.4 7.4 0 007 5.9c3.4.09 5.8-2.41 5.34-5.57a7.39 7.39 0 00-6-5.79l-3.19-21.68-25.4-20.67-10.85-73.78-2.08-.06zm34.44 47.32a3.24 3.24 0 01-3.54 3.69 4.89 4.89 0 01-4.64-3.92 3.22 3.22 0 013.52-3.69 4.93 4.93 0 014.66 3.92z" fill="url(#prefix__Dégradé_sans_nom_20-18)"/><path id="prefix__Tracé_3539" data-name="Tracé 3539" d="M263 422.44a4.76 4.76 0 00-4.34 5.15v.36a7.42 7.42 0 007 5.89c3.42.09 5.8-2.4 5.34-5.56a7.37 7.37 0 00-6-5.79l-20-136.3-2.08-.06zm6 5.79a3.22 3.22 0 01-2.71 3.66 3.3 3.3 0 01-.83 0 4.89 4.89 0 01-4.64-3.91 3.22 3.22 0 013.52-3.69 4.92 4.92 0 014.66 3.91z" fill="url(#prefix__Dégradé_sans_nom_20-19)"/><path id="prefix__Tracé_3540" data-name="Tracé 3540" d="M281.06 336.6l27.72 22.89a4.75 4.75 0 00-.67 3.31 7.41 7.41 0 007 5.9c3.4.09 5.8-2.4 5.34-5.57a7.42 7.42 0 00-7-5.9 5.7 5.7 0 00-3.38.94L283 335.84 275.84 287l-2.08-.06zm37.33 26.48a3.24 3.24 0 01-3.54 3.69 4.91 4.91 0 01-4.66-3.92 3.22 3.22 0 012.71-3.66 3.3 3.3 0 01.83 0 4.92 4.92 0 014.66 3.91z" fill="url(#prefix__Dégradé_sans_nom_20-20)"/></g></g></g></g></g></g><g id="prefix__Groupe_1193-2" data-name="Groupe 1193-2"><g id="prefix__Groupe_1192-2" data-name="Groupe 1192-2"><g id="prefix__Groupe_1191-2" data-name="Groupe 1191-2"><g id="prefix__Groupe_1190-2" data-name="Groupe 1190-2"><g id="prefix__Groupe_1180-2" data-name="Groupe 1180-2"><g id="prefix__Groupe_1179-2" data-name="Groupe 1179-2"><path id="prefix__Tracé_3521-2" data-name="Tracé 3521-2" d="M204.82 101.55c60.79-10.88 125.66 25.81 144.89 82S335.23 294 274.44 304.88s-125.66-25.82-144.88-82S144 112.43 204.82 101.55z" fill="#4988fc"/></g></g><g id="prefix__Groupe_1181-2" data-name="Groupe 1181-2"><path id="prefix__Tracé_3522-2" data-name="Tracé 3522-2" d="M204.82 101.55c60.79-10.88 125.66 25.81 144.89 82S335.23 294 274.44 304.88s-125.66-25.82-144.88-82S144 112.43 204.82 101.55z" fill="url(#prefix__Dégradé_sans_nom_21)"/></g><g id="prefix__Groupe_1182-2" data-name="Groupe 1182-2"><path id="prefix__Tracé_3523-2" data-name="Tracé 3523-2" d="M252.74 289.62c-47.63 0-92.61-30.39-106.94-72.27-7.39-21.58-5.57-43.48 5.13-61.66 11.48-19.5 31.69-32.73 56.92-37.25a107.2 107.2 0 0118.68-1.64c47.62 0 92.6 30.39 106.94 72.27 7.38 21.57 5.56 43.47-5.14 61.65-11.48 19.51-31.69 32.74-56.91 37.25a106.42 106.42 0 01-18.68 1.65z" fill="#2869df"/></g><g id="prefix__Groupe_1183-2" data-name="Groupe 1183-2"><path id="prefix__Tracé_3524-2" data-name="Tracé 3524-2" d="M252.74 289.62c-47.63 0-92.61-30.39-106.94-72.27-7.39-21.58-5.57-43.48 5.13-61.66 11.48-19.5 31.69-32.73 56.92-37.25a107.2 107.2 0 0118.68-1.64c47.62 0 92.6 30.39 106.94 72.27 7.38 21.57 5.56 43.47-5.14 61.65-11.48 19.51-31.69 32.74-56.91 37.25a106.42 106.42 0 01-18.68 1.65z" fill="url(#prefix__Dégradé_sans_nom_22)"/></g><g id="prefix__Groupe_1184-2" data-name="Groupe 1184-2" opacity=".25"><path id="prefix__Tracé_3525-2" data-name="Tracé 3525-2" d="M176.51 261.35l24.09-24.09 96.63-96.62A119.77 119.77 0 00261 122.11l-109.1 109.1a105.41 105.41 0 0024.61 30.14z" fill="url(#prefix__Dégradé_sans_nom_24)"/><path id="prefix__Tracé_3526-2" data-name="Tracé 3526-2" d="M249.4 270.64l83.47-83.21a96.84 96.84 0 00-14.65-26.25L201.67 277.73a119.49 119.49 0 0030.59 10z" fill="url(#prefix__Dégradé_sans_nom_24-2)"/></g><path id="prefix__Tracé_3527-2" data-name="Tracé 3527-2" d="M333.47 189.07c-14.34-41.87-59.32-72.27-106.94-72.27a107.37 107.37 0 00-18.68 1.64c-20.42 3.66-37.54 13-49.42 26.8 10.86-8.82 24.49-14.91 40-17.7a107.37 107.37 0 0118.68-1.64c47.63 0 92.6 30.39 106.94 72.27 7.39 21.57 5.57 43.47-5.13 61.65a71.68 71.68 0 01-7.5 10.46 72.77 72.77 0 0016.9-19.55c10.68-18.19 12.53-40.09 5.15-61.66z" fill="#1f55b7"/><g id="prefix__Groupe_1186-2" data-name="Groupe 1186-2"><g clip-path="url(#prefix__clip-path)" id="prefix__Groupe_1199" data-name="Groupe 1199"><g id="prefix__Groupe_1198" data-name="Groupe 1198"><g id="prefix__Groupe_1185-2" data-name="Groupe 1185-2"><path id="prefix__Tracé_3528-2" data-name="Tracé 3528-2" d="M288 301.6a114.86 114.86 0 01-13.56 3.27c-60.79 10.88-125.66-25.81-144.88-82-8-23.36-6.84-46.42 1.63-66.16l-11.76 27.42C111 203.9 109.8 227 117.8 250.32c19.22 56.15 84.09 92.85 144.88 82a114.9 114.9 0 0013.56-3.32c28.62-8.78 49.76-27.9 60.07-51.93l11.76-27.42c-10.31 24.05-31.46 43.17-60.07 51.95z" fill="#255cc1"/></g></g></g></g><g id="prefix__Groupe_1189-2" data-name="Groupe 1189-2"><g clip-path="url(#prefix__clip-path-2)" id="prefix__Groupe_1201" data-name="Groupe 1201"><g id="prefix__Groupe_1200" data-name="Groupe 1200"><g id="prefix__Groupe_1188-2" data-name="Groupe 1188-2"><g id="prefix__Groupe_1187-2" data-name="Groupe 1187-2"><path id="prefix__Ligne_80" data-name="Ligne 80" class="prefix__cls-34" d="M141.53 164.8l-41.67 80.67"/><path id="prefix__Ligne_81" data-name="Ligne 81" class="prefix__cls-34" d="M152.77 199.09l-41.68 80.68"/><path id="prefix__Ligne_82" data-name="Ligne 82" class="prefix__cls-34" d="M164 233.39l-41.67 80.68"/><path id="prefix__Ligne_83" data-name="Ligne 83" class="prefix__cls-34" d="M175.24 267.68l-41.67 80.68"/><path id="prefix__Ligne_84" data-name="Ligne 84" class="prefix__cls-34" d="M201.42 273.73l-41.67 80.68"/><path id="prefix__Ligne_85" data-name="Ligne 85" class="prefix__cls-34" d="M227.61 279.77l-41.67 80.68"/><path id="prefix__Ligne_86" data-name="Ligne 86" class="prefix__cls-34" d="M253.8 285.81l-41.68 80.68"/><path id="prefix__Ligne_87" data-name="Ligne 87" class="prefix__cls-34" d="M279.98 291.86l-41.67 80.67"/><path id="prefix__Ligne_88" data-name="Ligne 88" class="prefix__cls-34" d="M315.4 279.77l-41.68 80.68"/><path id="prefix__Ligne_89" data-name="Ligne 89" class="prefix__cls-34" d="M201.42 273.73l-41.67 80.68"/></g></g></g></g></g><path id="prefix__Tracé_3532-2" data-name="Tracé 3532-2" d="M288 301.6a114.86 114.86 0 01-13.56 3.27c-60.79 10.88-125.66-25.81-144.88-82-8-23.36-6.84-46.42 1.63-66.16l-11.76 27.42C111 203.9 109.8 227 117.8 250.32c19.22 56.15 84.09 92.85 144.88 82a114.9 114.9 0 0013.56-3.32c28.62-8.78 49.76-27.9 60.07-51.93l11.76-27.42c-10.31 24.05-31.46 43.17-60.07 51.95z" style="isolation:isolate" opacity=".29" fill="url(#prefix__Dégradé_sans_nom_25)"/></g></g></g><g id="prefix__Groupe_1207" data-name="Groupe 1207"><g id="prefix__Groupe_1206" data-name="Groupe 1206"><path id="prefix__Tracé_3228-2" data-name="Tracé 3228-2" d="M217.23 225l16.27-32.55 49.38 46.72 25.76-.21L224 158l-41 82 87.53-.71-32.7-31L229.5 225z" fill="#fff"/></g></g></g></g></g></g></svg>